<svg width="24" height="20" viewBox="0 0 24 20" fill="none" xmlns="http://www.w3.org/2000/svg">
<path d="M22.4938 12.347V5.63074L22.7603 5.54708C23.7849 5.22541 24 4.68083 24 4.28061C24 3.88038 23.7848 3.3358 22.7603 3.01428L13.9927 0.262779C13.4527 0.0933136 12.745 0 12.0001 0C11.2551 0 10.5474 0.0933136 10.0073 0.262779L1.2398 3.01428C0.215109 3.3358 0 3.88038 0 4.28066C0 4.68088 0.215062 5.22551 1.23975 5.54713L4.5188 6.57618V12.1209C4.5188 12.8094 4.94663 13.7793 6.9848 14.49C8.3348 14.9608 10.1159 15.22 12 15.22C13.884 15.22 15.6652 14.9608 17.0152 14.49C19.0534 13.7793 19.4812 12.8094 19.4812 12.1209V6.57623L21.0875 6.0721V12.347C20.2131 12.655 19.5813 13.5203 19.5813 14.5375V17.6888C19.5813 18.9632 20.5724 20 21.7906 20C23.0089 20 24 18.9633 24 17.6888V14.5375C24 13.5203 23.3682 12.655 22.4938 12.347ZM10.4114 1.6718C10.818 1.54416 11.397 1.471 12.0001 1.471C12.603 1.471 13.1821 1.54416 13.5887 1.67175L21.9018 4.28066L18.5726 5.32549C18.5707 5.32613 18.5688 5.32667 18.5669 5.32731L13.5887 6.88961C13.1821 7.0172 12.6031 7.09036 12.0001 7.09036C11.3971 7.09036 10.818 7.0172 10.4115 6.88961L5.43333 5.32731C5.43141 5.32667 5.42953 5.32613 5.42761 5.32549L2.09836 4.28066L10.4114 1.6718ZM18.075 10.1893C18.075 12.2157 17.8197 12.6588 16.5705 13.0944C15.3601 13.5165 13.737 13.7489 12 13.7489C10.2631 13.7489 8.63991 13.5165 7.42955 13.0944C6.18042 12.6588 5.92505 12.2157 5.92505 12.1209V7.01745L10.0073 8.29858C10.5474 8.46805 11.2551 8.56136 12.0001 8.56136C12.745 8.56136 13.4527 8.46805 13.9928 8.29858L18.075 7.01745V10.1893ZM22.5938 17.6888C22.5938 18.152 22.2335 18.5289 21.7907 18.5289C21.3479 18.5289 20.9876 18.1521 20.9876 17.6888V14.5375C20.9876 14.0742 21.3478 13.6973 21.7907 13.6973C22.2336 13.6973 22.5938 14.0742 22.5938 14.5375V17.6888Z" fill="#B5B5B5"/>
</svg>
