<svg width="24" height="24" viewBox="0 0 24 24" fill="none" xmlns="http://www.w3.org/2000/svg">
<g clip-path="url(#clip0_1108_3409)">
<path d="M23.766 9.64795H22.8V9.59995H12V14.3999H18.78C18.2593 15.8516 17.2862 17.0977 16.0041 17.9548C14.7219 18.8119 13.1985 19.2346 11.658 19.1607C10.1175 19.0869 8.64151 18.5204 7.44723 17.5446C6.25295 16.5688 5.40355 15.2353 5.02409 13.7405C4.64464 12.2457 4.75519 10.6685 5.33946 9.24128C5.92374 7.81402 6.95086 6.61207 8.26958 5.81244C9.58831 5.0128 11.1289 4.65772 12.6646 4.7995C14.2003 4.94127 15.6499 5.5724 16.8 6.59995L20.196 3.20395C18.1817 1.32047 15.5802 0.188222 12.8291 -0.0023154C10.0781 -0.192853 7.34531 0.569951 5.09063 2.15776C2.83595 3.74557 1.19695 6.06149 0.449367 8.71589C-0.298216 11.3703 -0.108757 14.2012 0.985869 16.7323C2.0805 19.2634 4.01349 21.3403 6.45964 22.6135C8.90579 23.8867 11.7158 24.2785 14.417 23.7231C17.1181 23.1676 19.5455 21.6988 21.2909 19.5637C23.0362 17.4287 23.9929 14.7576 24 11.9999C23.9985 11.2102 23.9201 10.4225 23.766 9.64795Z" fill="#FFC107"/>
<path d="M1.38599 6.41383L5.32799 9.30583C5.75716 8.23228 6.43854 7.27786 7.31453 6.52331C8.19051 5.76875 9.23531 5.23624 10.3606 4.97081C11.4859 4.70538 12.6585 4.71484 13.7794 4.99839C14.9002 5.28194 15.9363 5.83124 16.8 6.59983L20.196 3.20383C18.8451 1.94509 17.222 1.01505 15.453 0.486099C13.684 -0.0428502 11.8167 -0.156442 9.99665 0.154165C8.17655 0.464773 6.45268 1.1912 4.9592 2.27691C3.46572 3.36262 2.24293 4.77832 1.38599 6.41383Z" fill="#FF3D00"/>
<path d="M12.0003 23.9999C14.9764 23.9993 17.8453 22.889 20.0463 20.8859L16.3323 17.7419C15.4317 18.4191 14.3848 18.8754 13.2757 19.0742C12.1666 19.2731 11.0264 19.2088 9.94664 18.8866C8.86692 18.5645 7.87788 17.9934 7.05909 17.2193C6.24029 16.4453 5.61459 15.4899 5.23231 14.4299L1.32031 17.4299C2.32164 19.4033 3.84913 21.0614 5.73393 22.2208C7.61873 23.3803 9.78743 23.996 12.0003 23.9999Z" fill="#4CAF50"/>
<path d="M23.766 9.64773H22.8V9.59973H12V14.3997H18.78C18.309 15.7295 17.4578 16.8916 16.332 17.7417L20.046 20.8857C21.3081 19.7784 22.3152 18.4105 22.9978 16.8765C23.6804 15.3424 24.0223 13.6786 24 11.9997C23.9985 11.21 23.9201 10.4223 23.766 9.64773Z" fill="#1976D2"/>
</g>
<defs>
<clipPath id="clip0_1108_3409">
<rect width="24" height="24" fill="white"/>
</clipPath>
</defs>
</svg>
