<?xml version="1.0" encoding="UTF-8" standalone="no"?><!DOCTYPE svg PUBLIC "-//W3C//DTD SVG 1.1//EN" "http://www.w3.org/Graphics/SVG/1.1/DTD/svg11.dtd"><svg width="100%" height="100%" viewBox="0 0 21 11" version="1.1" xmlns="http://www.w3.org/2000/svg" xmlns:xlink="http://www.w3.org/1999/xlink" xml:space="preserve" xmlns:serif="http://www.serif.com/" style="fill-rule:evenodd;clip-rule:evenodd;stroke-linejoin:round;stroke-miterlimit:2;"><path d="M0,0l0,10.967l2.412,0l0,-4.731l4.439,0l0,4.731l2.411,0l0,-10.967l-2.411,0l0,4.209l-4.439,-0l0,-4.209l-2.412,0Zm13.797,5.161l0,-3.287l1.873,-0c0.277,-0 0.543,0.02 0.799,0.061c0.256,0.041 0.481,0.123 0.676,0.246c0.195,0.113 0.348,0.277 0.461,0.492c0.123,0.215 0.184,0.496 0.184,0.844c0,0.349 -0.061,0.63 -0.184,0.845c-0.113,0.215 -0.266,0.384 -0.461,0.507c-0.195,0.113 -0.42,0.19 -0.676,0.231c-0.256,0.04 -0.522,0.061 -0.799,0.061l-1.873,-0Zm-2.412,-5.161l0,10.967l2.412,0l0,-3.932l2.534,0c0.686,0 1.27,-0.097 1.751,-0.292c0.481,-0.205 0.87,-0.471 1.167,-0.799c0.308,-0.327 0.528,-0.701 0.661,-1.121c0.143,-0.43 0.215,-0.865 0.215,-1.306c0,-0.45 -0.072,-0.885 -0.215,-1.305c-0.133,-0.42 -0.353,-0.794 -0.661,-1.121c-0.297,-0.328 -0.686,-0.589 -1.167,-0.784c-0.481,-0.205 -1.065,-0.307 -1.751,-0.307l-4.946,0Z" style="fill:#251c13;fill-rule:nonzero;"/></svg>