<?xml version="1.0" encoding="UTF-8" standalone="no"?><!DOCTYPE svg PUBLIC "-//W3C//DTD SVG 1.1//EN" "http://www.w3.org/Graphics/SVG/1.1/DTD/svg11.dtd"><svg width="100%" height="100%" viewBox="0 0 7 7" version="1.1" xmlns="http://www.w3.org/2000/svg" xmlns:xlink="http://www.w3.org/1999/xlink" xml:space="preserve" xmlns:serif="http://www.serif.com/" style="fill-rule:evenodd;clip-rule:evenodd;stroke-linejoin:round;stroke-miterlimit:2;"><path d="M4.418,4.797l-0,0.489c-0,0.54 -0.44,0.979 -0.979,0.979l-2.46,0c-0.54,0 -0.979,-0.439 -0.979,-0.979l-0,-4.307c-0,-0.54 0.439,-0.979 0.979,-0.979l2.46,-0c0.539,-0 0.979,0.439 0.979,0.979l-0,0.489c-0,0.136 -0.11,0.245 -0.245,0.245c-0.135,0 -0.245,-0.109 -0.245,-0.245l0,-0.489c0,-0.27 -0.219,-0.49 -0.489,-0.49l-2.46,0c-0.27,0 -0.49,0.22 -0.49,0.49l0,4.307c0,0.27 0.22,0.49 0.49,0.49l2.46,-0c0.27,-0 0.489,-0.22 0.489,-0.49l0,-0.489c0,-0.135 0.11,-0.245 0.245,-0.245c0.135,0 0.245,0.11 0.245,0.245Zm1.668,-2.085l-0.548,-0.548c-0.095,-0.095 -0.25,-0.095 -0.346,0c-0.096,0.096 -0.096,0.251 0,0.346l0.39,0.39l-2.939,0c-0.135,0 -0.245,0.11 -0.245,0.245c0,0.135 0.11,0.245 0.245,0.245l2.939,-0l-0.39,0.39c-0.096,0.095 -0.096,0.25 0,0.346c0.048,0.047 0.11,0.071 0.173,0.071c0.063,0 0.125,-0.024 0.173,-0.071l0.548,-0.548c0.239,-0.239 0.239,-0.627 0,-0.866Z" style="fill:#fff;fill-rule:nonzero;"/></svg>