<?xml version="1.0" encoding="UTF-8" standalone="no"?><!DOCTYPE svg PUBLIC "-//W3C//DTD SVG 1.1//EN" "http://www.w3.org/Graphics/SVG/1.1/DTD/svg11.dtd"><svg width="100%" height="100%" viewBox="0 0 5 5" version="1.1" xmlns="http://www.w3.org/2000/svg" xmlns:xlink="http://www.w3.org/1999/xlink" xml:space="preserve" xmlns:serif="http://www.serif.com/" style="fill-rule:evenodd;clip-rule:evenodd;stroke-linejoin:round;stroke-miterlimit:2;"><path d="M3.288,0.563c-0.751,-0.751 -1.974,-0.751 -2.725,0c-0.751,0.752 -0.751,1.974 0,2.725c0.669,0.669 1.711,0.741 2.462,0.218c0.015,0.075 0.051,0.147 0.11,0.205l1.093,1.094c0.16,0.159 0.417,0.159 0.576,-0c0.159,-0.16 0.159,-0.417 0,-0.576l-1.094,-1.094c-0.058,-0.058 -0.129,-0.094 -0.204,-0.11c0.523,-0.751 0.451,-1.792 -0.218,-2.462Zm-0.345,2.38c-0.561,0.561 -1.474,0.561 -2.034,-0c-0.561,-0.561 -0.561,-1.473 -0,-2.034c0.56,-0.561 1.473,-0.561 2.034,-0c0.56,0.561 0.56,1.473 -0,2.034Z" style="fill-rule:nonzero;"/></svg>