<?xml version="1.0" encoding="UTF-8" standalone="no"?><!DOCTYPE svg PUBLIC "-//W3C//DTD SVG 1.1//EN" "http://www.w3.org/Graphics/SVG/1.1/DTD/svg11.dtd"><svg width="100%" height="100%" viewBox="0 0 7 7" version="1.1" xmlns="http://www.w3.org/2000/svg" xmlns:xlink="http://www.w3.org/1999/xlink" xml:space="preserve" xmlns:serif="http://www.serif.com/" style="fill-rule:evenodd;clip-rule:evenodd;stroke-linejoin:round;stroke-miterlimit:2;"><g><path d="M3.316,6.24l-0.392,0c-0.317,0 -0.574,-0.258 -0.574,-0.574l-0,-0.133c-0.135,-0.043 -0.266,-0.097 -0.391,-0.162l-0.094,0.094c-0.228,0.227 -0.592,0.221 -0.813,-0l-0.277,-0.277c-0.221,-0.221 -0.227,-0.585 0,-0.813l0.094,-0.094c-0.065,-0.125 -0.119,-0.256 -0.162,-0.391l-0.133,0c-0.316,0 -0.574,-0.257 -0.574,-0.574l0,-0.392c0,-0.317 0.258,-0.574 0.574,-0.574l0.133,-0c0.043,-0.135 0.097,-0.266 0.162,-0.391l-0.094,-0.094c-0.227,-0.228 -0.221,-0.592 0,-0.813l0.277,-0.277c0.222,-0.221 0.586,-0.227 0.813,0l0.094,0.094c0.125,-0.065 0.256,-0.119 0.391,-0.162l-0,-0.133c-0,-0.316 0.257,-0.574 0.574,-0.574l0.392,0c0.317,0 0.574,0.258 0.574,0.574l0,0.133c0.135,0.043 0.266,0.097 0.391,0.162l0.094,-0.094c0.228,-0.227 0.592,-0.221 0.813,0l0.277,0.277c0.221,0.221 0.227,0.585 -0,0.813l-0.094,0.094c0.065,0.125 0.119,0.256 0.162,0.391l0.133,-0c0.316,-0 0.574,0.257 0.574,0.574l0,0.392c0,0.317 -0.258,0.574 -0.574,0.574l-0.133,0c-0.043,0.135 -0.097,0.266 -0.162,0.391l0.094,0.094c0.227,0.228 0.221,0.592 -0,0.813l-0.277,0.277c-0.222,0.221 -0.586,0.227 -0.813,-0l-0.094,-0.094c-0.125,0.065 -0.256,0.119 -0.391,0.162l0,0.133c0,0.316 -0.257,0.574 -0.574,0.574Zm-1.296,-1.253c0.174,0.103 0.362,0.181 0.558,0.232c0.081,0.02 0.137,0.093 0.137,0.177l0,0.27c0,0.115 0.094,0.208 0.209,0.208l0.392,0c0.115,0 0.209,-0.093 0.209,-0.208l-0,-0.27c-0,-0.084 0.056,-0.157 0.137,-0.177c0.196,-0.051 0.384,-0.129 0.558,-0.232c0.072,-0.043 0.164,-0.031 0.223,0.028l0.191,0.191c0.082,0.083 0.215,0.081 0.295,0l0.277,-0.277c0.08,-0.08 0.083,-0.212 0,-0.295l-0.191,-0.191c-0.059,-0.059 -0.071,-0.151 -0.028,-0.223c0.103,-0.174 0.181,-0.362 0.232,-0.558c0.02,-0.081 0.093,-0.137 0.177,-0.137l0.27,-0c0.115,-0 0.208,-0.094 0.208,-0.209l0,-0.392c0,-0.115 -0.093,-0.209 -0.208,-0.209l-0.27,0c-0.084,0 -0.157,-0.056 -0.177,-0.137c-0.051,-0.196 -0.129,-0.384 -0.232,-0.558c-0.043,-0.072 -0.031,-0.164 0.028,-0.223l0.191,-0.191c0.083,-0.082 0.081,-0.215 0,-0.295l-0.277,-0.277c-0.08,-0.08 -0.212,-0.083 -0.295,-0l-0.191,0.191c-0.059,0.059 -0.151,0.071 -0.223,0.028c-0.174,-0.103 -0.362,-0.181 -0.558,-0.232c-0.081,-0.02 -0.137,-0.093 -0.137,-0.177l-0,-0.27c-0,-0.115 -0.094,-0.208 -0.209,-0.208l-0.392,-0c-0.115,-0 -0.209,0.093 -0.209,0.208l0,0.27c0,0.084 -0.056,0.157 -0.137,0.177c-0.196,0.051 -0.384,0.129 -0.558,0.232c-0.072,0.043 -0.164,0.031 -0.223,-0.028l-0.191,-0.191c-0.082,-0.083 -0.215,-0.081 -0.295,-0l-0.277,0.277c-0.08,0.08 -0.083,0.212 -0,0.295l0.191,0.191c0.059,0.059 0.071,0.151 0.028,0.223c-0.103,0.174 -0.181,0.362 -0.232,0.558c-0.02,0.081 -0.093,0.137 -0.177,0.137l-0.27,0c-0.115,0 -0.208,0.094 -0.208,0.209l-0,0.392c-0,0.115 0.093,0.209 0.208,0.209l0.27,-0c0.084,-0 0.157,0.056 0.177,0.137c0.051,0.196 0.129,0.384 0.232,0.558c0.043,0.072 0.031,0.164 -0.028,0.223l-0.191,0.191c-0.083,0.082 -0.081,0.215 -0,0.295l0.277,0.277c0.08,0.08 0.212,0.083 0.295,0l0.191,-0.191c0.044,-0.044 0.134,-0.081 0.223,-0.028Z" style="fill:#fff;fill-rule:nonzero;"/><path d="M3.12,4.478c-0.748,-0 -1.358,-0.609 -1.358,-1.358c0,-0.749 0.61,-1.358 1.358,-1.358c0.749,0 1.358,0.609 1.358,1.358c-0,0.749 -0.609,1.358 -1.358,1.358Zm0,-2.35c-0.547,-0 -0.992,0.445 -0.992,0.992c0,0.547 0.445,0.992 0.992,0.992c0.547,0 0.992,-0.445 0.992,-0.992c0,-0.547 -0.445,-0.992 -0.992,-0.992Z" style="fill:#fff;fill-rule:nonzero;"/></g></svg>