<svg width="412" height="287" viewBox="0 0 412 287" fill="none" xmlns="http://www.w3.org/2000/svg">
<path d="M15.1074 2.46875V8.16992C15.1074 9.07617 14.8164 9.79492 14.2344 10.3262C13.6562 10.8535 12.8848 11.1172 11.9199 11.1172C10.9434 11.1172 10.168 10.8574 9.59375 10.3379C9.01953 9.81445 8.73242 9.08984 8.73242 8.16406V2.46875H10.209V8.17578C10.209 8.74609 10.3535 9.18164 10.6426 9.48242C10.9316 9.7832 11.3574 9.93359 11.9199 9.93359C13.0605 9.93359 13.6309 9.33203 13.6309 8.12891V2.46875H15.1074ZM19.1377 7.83008V11H17.6553V2.46875H20.919C21.8721 2.46875 22.628 2.7168 23.1866 3.21289C23.7491 3.70898 24.0303 4.36523 24.0303 5.18164C24.0303 6.01758 23.7549 6.66797 23.2041 7.13281C22.6573 7.59766 21.8897 7.83008 20.9014 7.83008H19.1377ZM19.1377 6.64062H20.919C21.4463 6.64062 21.8487 6.51758 22.126 6.27148C22.4034 6.02148 22.542 5.66211 22.542 5.19336C22.542 4.73242 22.4014 4.36523 22.1202 4.0918C21.8389 3.81445 21.4522 3.67187 20.96 3.66406H19.1377V6.64062ZM27.7735 7.83008V11H26.2911V2.46875H29.5548C30.5079 2.46875 31.2638 2.7168 31.8223 3.21289C32.3848 3.70898 32.6661 4.36523 32.6661 5.18164C32.6661 6.01758 32.3907 6.66797 31.8399 7.13281C31.293 7.59766 30.5255 7.83008 29.5372 7.83008H27.7735ZM27.7735 6.64062H29.5548C30.0821 6.64062 30.4845 6.51758 30.7618 6.27148C31.0391 6.02148 31.1778 5.66211 31.1778 5.19336C31.1778 4.73242 31.0372 4.36523 30.7559 4.0918C30.4747 3.81445 30.088 3.67187 29.5958 3.66406H27.7735V6.64062ZM41.4659 9.89258C41.1573 10.2949 40.7296 10.5996 40.1827 10.8066C39.6359 11.0137 39.0148 11.1172 38.3195 11.1172C37.6046 11.1172 36.9718 10.9551 36.421 10.6309C35.8702 10.3066 35.4445 9.84375 35.1437 9.24219C34.8468 8.63672 34.6925 7.93164 34.6808 7.12695V6.45898C34.6808 5.16992 34.9894 4.16406 35.6066 3.44141C36.2237 2.71484 37.0851 2.35156 38.1905 2.35156C39.1398 2.35156 39.8937 2.58594 40.4523 3.05469C41.0109 3.52344 41.3468 4.19922 41.4601 5.08203H40.007C39.8429 4.05469 39.2472 3.54102 38.2198 3.54102C37.5558 3.54102 37.0499 3.78125 36.7023 4.26172C36.3585 4.73828 36.1808 5.43945 36.1691 6.36523V7.02148C36.1691 7.94336 36.3624 8.66016 36.7491 9.17188C37.1398 9.67969 37.6808 9.93359 38.3722 9.93359C39.13 9.93359 39.6691 9.76172 39.9894 9.41797V7.74805H38.2316V6.62305H41.4659V9.89258ZM45.6193 11H44.1427V2.46875H45.6193V11ZM53.3176 7.38477H49.884V11H48.4016V2.46875H53.8215V3.66406H49.884V6.20117H53.3176V7.38477ZM62.2405 3.66406H59.5803V11H58.1096V3.66406H55.4729V2.46875H62.2405V3.66406ZM69.3118 7.19141H65.8079V9.81641H69.9036V11H64.3255V2.46875H69.8626V3.66406H65.8079V6.01953H69.3118V7.19141ZM75.2054 7.71289H73.553V11H72.0706V2.46875H75.0706C76.055 2.46875 76.8148 2.68945 77.3499 3.13086C77.8851 3.57227 78.1527 4.21094 78.1527 5.04688C78.1527 5.61719 78.014 6.0957 77.7366 6.48242C77.4632 6.86523 77.0804 7.16016 76.5882 7.36719L78.5042 10.9238V11H76.9163L75.2054 7.71289ZM73.553 6.52344H75.0765C75.5765 6.52344 75.9671 6.39844 76.2484 6.14844C76.5296 5.89453 76.6702 5.54883 76.6702 5.11133C76.6702 4.6543 76.5394 4.30078 76.2777 4.05078C76.0198 3.80078 75.6331 3.67187 75.1175 3.66406H73.553V6.52344Z" fill="#252525"/>
<path d="M47.1787 282.755L49.21 276.891H50.2354L47.5986 284H46.7686L44.1367 276.891H45.1572L47.1787 282.755ZM49.9668 283.526C49.9668 283.37 50.0124 283.24 50.1035 283.136C50.1979 283.032 50.3379 282.979 50.5234 282.979C50.709 282.979 50.849 283.032 50.9434 283.136C51.041 283.24 51.0898 283.37 51.0898 283.526C51.0898 283.676 51.041 283.801 50.9434 283.902C50.849 284.003 50.709 284.054 50.5234 284.054C50.3379 284.054 50.1979 284.003 50.1035 283.902C50.0124 283.801 49.9668 283.676 49.9668 283.526ZM53.8047 280.006H54.4834C54.9098 279.999 55.2451 279.887 55.4893 279.669C55.7334 279.451 55.8555 279.156 55.8555 278.785C55.8555 277.952 55.4404 277.535 54.6104 277.535C54.2197 277.535 53.9072 277.647 53.6729 277.872C53.4417 278.093 53.3262 278.388 53.3262 278.756H52.4229C52.4229 278.193 52.6279 277.726 53.0381 277.354C53.4515 276.98 53.9756 276.793 54.6104 276.793C55.2809 276.793 55.8066 276.97 56.1875 277.325C56.5684 277.68 56.7588 278.173 56.7588 278.805C56.7588 279.114 56.6579 279.413 56.4561 279.703C56.2575 279.993 55.9857 280.209 55.6406 280.353C56.0312 280.476 56.3324 280.681 56.5439 280.968C56.7588 281.254 56.8662 281.604 56.8662 282.018C56.8662 282.656 56.6579 283.162 56.2412 283.536C55.8245 283.91 55.2826 284.098 54.6152 284.098C53.9479 284.098 53.4043 283.917 52.9844 283.556C52.5677 283.194 52.3594 282.717 52.3594 282.125H53.2676C53.2676 282.499 53.3896 282.799 53.6338 283.023C53.8779 283.248 54.2051 283.36 54.6152 283.36C55.0514 283.36 55.3851 283.246 55.6162 283.019C55.8473 282.791 55.9629 282.464 55.9629 282.037C55.9629 281.624 55.8359 281.306 55.582 281.085C55.3281 280.864 54.9619 280.75 54.4834 280.743H53.8047V280.006ZM58.5215 280.436L58.8828 276.891H62.5254V277.726H59.6494L59.4346 279.664C59.7829 279.459 60.1784 279.356 60.6211 279.356C61.2689 279.356 61.7832 279.571 62.1641 280.001C62.5449 280.427 62.7354 281.005 62.7354 281.734C62.7354 282.467 62.5368 283.045 62.1396 283.468C61.7458 283.888 61.194 284.098 60.4844 284.098C59.8561 284.098 59.3434 283.924 58.9463 283.575C58.5492 283.227 58.3229 282.745 58.2676 282.13H59.1221C59.1774 282.537 59.3223 282.844 59.5566 283.053C59.791 283.258 60.1003 283.36 60.4844 283.36C60.9043 283.36 61.2331 283.217 61.4707 282.931C61.7116 282.644 61.832 282.249 61.832 281.744C61.832 281.269 61.7018 280.888 61.4414 280.602C61.1842 280.312 60.8408 280.167 60.4111 280.167C60.0173 280.167 59.708 280.253 59.4834 280.426L59.2441 280.621L58.5215 280.436Z" fill="#252525"/>
<path d="M164.048 282.755L166.079 276.891H167.104L164.468 284H163.638L161.006 276.891H162.026L164.048 282.755ZM166.836 283.526C166.836 283.37 166.882 283.24 166.973 283.136C167.067 283.032 167.207 282.979 167.393 282.979C167.578 282.979 167.718 283.032 167.812 283.136C167.91 283.24 167.959 283.37 167.959 283.526C167.959 283.676 167.91 283.801 167.812 283.902C167.718 284.003 167.578 284.054 167.393 284.054C167.207 284.054 167.067 284.003 166.973 283.902C166.882 283.801 166.836 283.676 166.836 283.526ZM170.674 280.006H171.353C171.779 279.999 172.114 279.887 172.358 279.669C172.603 279.451 172.725 279.156 172.725 278.785C172.725 277.952 172.31 277.535 171.479 277.535C171.089 277.535 170.776 277.647 170.542 277.872C170.311 278.093 170.195 278.388 170.195 278.756H169.292C169.292 278.193 169.497 277.726 169.907 277.354C170.321 276.98 170.845 276.793 171.479 276.793C172.15 276.793 172.676 276.97 173.057 277.325C173.438 277.68 173.628 278.173 173.628 278.805C173.628 279.114 173.527 279.413 173.325 279.703C173.127 279.993 172.855 280.209 172.51 280.353C172.9 280.476 173.201 280.681 173.413 280.968C173.628 281.254 173.735 281.604 173.735 282.018C173.735 282.656 173.527 283.162 173.11 283.536C172.694 283.91 172.152 284.098 171.484 284.098C170.817 284.098 170.273 283.917 169.854 283.556C169.437 283.194 169.229 282.717 169.229 282.125H170.137C170.137 282.499 170.259 282.799 170.503 283.023C170.747 283.248 171.074 283.36 171.484 283.36C171.921 283.36 172.254 283.246 172.485 283.019C172.716 282.791 172.832 282.464 172.832 282.037C172.832 281.624 172.705 281.306 172.451 281.085C172.197 280.864 171.831 280.75 171.353 280.743H170.674V280.006ZM179.565 277.398L176.621 284H175.674L178.608 277.633H174.761V276.891H179.565V277.398Z" fill="#252525"/>
<path d="M280.048 282.755L282.079 276.891H283.104L280.468 284H279.638L277.006 276.891H278.026L280.048 282.755ZM282.836 283.526C282.836 283.37 282.882 283.24 282.973 283.136C283.067 283.032 283.207 282.979 283.393 282.979C283.578 282.979 283.718 283.032 283.812 283.136C283.91 283.24 283.959 283.37 283.959 283.526C283.959 283.676 283.91 283.801 283.812 283.902C283.718 284.003 283.578 284.054 283.393 284.054C283.207 284.054 283.067 284.003 282.973 283.902C282.882 283.801 282.836 283.676 282.836 283.526ZM286.674 280.006H287.353C287.779 279.999 288.114 279.887 288.358 279.669C288.603 279.451 288.725 279.156 288.725 278.785C288.725 277.952 288.31 277.535 287.479 277.535C287.089 277.535 286.776 277.647 286.542 277.872C286.311 278.093 286.195 278.388 286.195 278.756H285.292C285.292 278.193 285.497 277.726 285.907 277.354C286.321 276.98 286.845 276.793 287.479 276.793C288.15 276.793 288.676 276.97 289.057 277.325C289.438 277.68 289.628 278.173 289.628 278.805C289.628 279.114 289.527 279.413 289.325 279.703C289.127 279.993 288.855 280.209 288.51 280.353C288.9 280.476 289.201 280.681 289.413 280.968C289.628 281.254 289.735 281.604 289.735 282.018C289.735 282.656 289.527 283.162 289.11 283.536C288.694 283.91 288.152 284.098 287.484 284.098C286.817 284.098 286.273 283.917 285.854 283.556C285.437 283.194 285.229 282.717 285.229 282.125H286.137C286.137 282.499 286.259 282.799 286.503 283.023C286.747 283.248 287.074 283.36 287.484 283.36C287.921 283.36 288.254 283.246 288.485 283.019C288.716 282.791 288.832 282.464 288.832 282.037C288.832 281.624 288.705 281.306 288.451 281.085C288.197 280.864 287.831 280.75 287.353 280.743H286.674V280.006ZM294.438 280.875C294.249 281.1 294.022 281.28 293.759 281.417C293.498 281.554 293.212 281.622 292.899 281.622C292.489 281.622 292.131 281.521 291.825 281.319C291.522 281.118 291.288 280.834 291.122 280.47C290.956 280.102 290.873 279.697 290.873 279.254C290.873 278.779 290.963 278.351 291.142 277.97C291.324 277.589 291.581 277.298 291.913 277.096C292.245 276.894 292.632 276.793 293.075 276.793C293.778 276.793 294.332 277.057 294.735 277.584C295.142 278.108 295.346 278.824 295.346 279.732V279.996C295.346 281.38 295.072 282.39 294.525 283.028C293.979 283.663 293.153 283.989 292.05 284.005H291.874V283.243H292.064C292.81 283.23 293.383 283.036 293.783 282.662C294.184 282.285 294.402 281.689 294.438 280.875ZM293.046 280.875C293.349 280.875 293.627 280.782 293.881 280.597C294.138 280.411 294.325 280.182 294.442 279.908V279.547C294.442 278.954 294.314 278.473 294.057 278.102C293.799 277.73 293.474 277.545 293.08 277.545C292.683 277.545 292.364 277.698 292.123 278.004C291.882 278.307 291.762 278.707 291.762 279.205C291.762 279.69 291.877 280.09 292.108 280.406C292.343 280.719 292.655 280.875 293.046 280.875Z" fill="#252525"/>
<path d="M338.048 282.755L340.079 276.891H341.104L338.468 284H337.638L335.006 276.891H336.026L338.048 282.755ZM340.836 283.526C340.836 283.37 340.882 283.24 340.973 283.136C341.067 283.032 341.207 282.979 341.393 282.979C341.578 282.979 341.718 283.032 341.812 283.136C341.91 283.24 341.959 283.37 341.959 283.526C341.959 283.676 341.91 283.801 341.812 283.902C341.718 284.003 341.578 284.054 341.393 284.054C341.207 284.054 341.067 284.003 340.973 283.902C340.882 283.801 340.836 283.676 340.836 283.526ZM347.174 281.612H348.16V282.35H347.174V284H346.266V282.35H343.028V281.817L346.212 276.891H347.174V281.612ZM344.054 281.612H346.266V278.126L346.158 278.321L344.054 281.612ZM353.434 280.968C353.434 282.026 353.253 282.812 352.892 283.326C352.53 283.84 351.965 284.098 351.197 284.098C350.439 284.098 349.877 283.847 349.513 283.346C349.148 282.841 348.959 282.089 348.946 281.09V279.884C348.946 278.839 349.127 278.062 349.488 277.555C349.85 277.047 350.416 276.793 351.188 276.793C351.952 276.793 352.516 277.039 352.877 277.53C353.238 278.019 353.424 278.774 353.434 279.796V280.968ZM352.53 279.732C352.53 278.967 352.423 278.411 352.208 278.062C351.993 277.711 351.653 277.535 351.188 277.535C350.725 277.535 350.388 277.709 350.177 278.058C349.965 278.406 349.856 278.941 349.85 279.664V281.109C349.85 281.878 349.96 282.446 350.182 282.813C350.406 283.178 350.745 283.36 351.197 283.36C351.643 283.36 351.974 283.188 352.188 282.843C352.407 282.498 352.521 281.954 352.53 281.212V279.732Z" fill="#252525"/>
<path d="M396.048 282.755L398.079 276.891H399.104L396.468 284H395.638L393.006 276.891H394.026L396.048 282.755ZM398.836 283.526C398.836 283.37 398.882 283.24 398.973 283.136C399.067 283.032 399.207 282.979 399.393 282.979C399.578 282.979 399.718 283.032 399.812 283.136C399.91 283.24 399.959 283.37 399.959 283.526C399.959 283.676 399.91 283.801 399.812 283.902C399.718 284.003 399.578 284.054 399.393 284.054C399.207 284.054 399.067 284.003 398.973 283.902C398.882 283.801 398.836 283.676 398.836 283.526ZM405.174 281.612H406.16V282.35H405.174V284H404.266V282.35H401.028V281.817L404.212 276.891H405.174V281.612ZM402.054 281.612H404.266V278.126L404.158 278.321L402.054 281.612ZM409.944 284H409.036V277.979L407.215 278.648V277.828L409.803 276.856H409.944V284Z" fill="#252525"/>
<path d="M21.4336 251.968C21.4336 253.026 21.2529 253.812 20.8916 254.326C20.5303 254.84 19.9655 255.098 19.1973 255.098C18.4388 255.098 17.8773 254.847 17.5127 254.346C17.1481 253.841 16.9593 253.089 16.9463 252.09V250.884C16.9463 249.839 17.127 249.062 17.4883 248.555C17.8496 248.047 18.416 247.793 19.1875 247.793C19.9525 247.793 20.5156 248.039 20.877 248.53C21.2383 249.019 21.4238 249.774 21.4336 250.796V251.968ZM20.5303 250.732C20.5303 249.967 20.4229 249.411 20.208 249.062C19.9932 248.711 19.653 248.535 19.1875 248.535C18.7253 248.535 18.3883 248.709 18.1768 249.058C17.9652 249.406 17.8561 249.941 17.8496 250.664V252.109C17.8496 252.878 17.9603 253.446 18.1816 253.813C18.4062 254.178 18.7448 254.36 19.1973 254.36C19.6432 254.36 19.9736 254.188 20.1885 253.843C20.4066 253.498 20.5205 252.954 20.5303 252.212V250.732Z" fill="black"/>
<path d="M21.6338 212H16.9756V211.351L19.4365 208.616C19.8011 208.203 20.0518 207.868 20.1885 207.61C20.3285 207.35 20.3984 207.081 20.3984 206.805C20.3984 206.434 20.2861 206.129 20.0615 205.892C19.8369 205.654 19.5374 205.535 19.1631 205.535C18.7139 205.535 18.3639 205.664 18.1133 205.921C17.8659 206.175 17.7422 206.53 17.7422 206.985H16.8389C16.8389 206.331 17.0488 205.802 17.4688 205.398C17.8919 204.995 18.4567 204.793 19.1631 204.793C19.8239 204.793 20.3464 204.967 20.7305 205.315C21.1146 205.66 21.3066 206.121 21.3066 206.697C21.3066 207.397 20.8607 208.23 19.9688 209.197L18.0645 211.263H21.6338V212Z" fill="#252525"/>
<path d="M20.4043 166.612H21.3906V167.35H20.4043V169H19.4961V167.35H16.2588V166.817L19.4424 161.891H20.4043V166.612ZM17.2842 166.612H19.4961V163.126L19.3887 163.321L17.2842 166.612Z" fill="#252525"/>
<path d="M20.1357 118.886V119.652H19.9697C19.2666 119.665 18.7067 119.874 18.29 120.277C17.8734 120.681 17.6325 121.249 17.5674 121.981C17.9417 121.552 18.4528 121.337 19.1006 121.337C19.7191 121.337 20.2122 121.555 20.5801 121.991C20.9512 122.427 21.1367 122.991 21.1367 123.681C21.1367 124.413 20.9365 124.999 20.5361 125.438C20.139 125.878 19.6051 126.098 18.9346 126.098C18.2542 126.098 17.7025 125.837 17.2793 125.316C16.8561 124.792 16.6445 124.118 16.6445 123.295V122.948C16.6445 121.64 16.9229 120.64 17.4795 119.95C18.0394 119.257 18.8711 118.902 19.9746 118.886H20.1357ZM18.9492 122.089C18.64 122.089 18.3551 122.182 18.0947 122.367C17.8343 122.553 17.6536 122.785 17.5527 123.065V123.397C17.5527 123.983 17.6846 124.455 17.9482 124.813C18.2119 125.172 18.5407 125.351 18.9346 125.351C19.3415 125.351 19.6605 125.201 19.8916 124.901C20.126 124.602 20.2432 124.21 20.2432 123.725C20.2432 123.236 20.1243 122.842 19.8867 122.543C19.6523 122.24 19.3398 122.089 18.9492 122.089Z" fill="#252525"/>
<path d="M20.9023 77.7461C20.9023 78.1009 20.8079 78.4167 20.6191 78.6934C20.4336 78.9701 20.1813 79.1865 19.8623 79.3428C20.2334 79.5023 20.5264 79.735 20.7412 80.041C20.9593 80.347 21.0684 80.6937 21.0684 81.0811C21.0684 81.6963 20.86 82.1862 20.4434 82.5508C20.0299 82.9154 19.4847 83.0977 18.8076 83.0977C18.124 83.0977 17.5755 82.9154 17.1621 82.5508C16.752 82.1829 16.5469 81.693 16.5469 81.0811C16.5469 80.6969 16.651 80.3503 16.8594 80.041C17.071 79.7318 17.3623 79.4974 17.7334 79.3379C17.4176 79.1816 17.1686 78.9652 16.9863 78.6885C16.804 78.4118 16.7129 78.0977 16.7129 77.7461C16.7129 77.1471 16.9049 76.6719 17.2891 76.3203C17.6732 75.9688 18.1794 75.793 18.8076 75.793C19.4326 75.793 19.9372 75.9688 20.3213 76.3203C20.7087 76.6719 20.9023 77.1471 20.9023 77.7461ZM20.165 81.0615C20.165 80.6644 20.0381 80.3405 19.7842 80.0898C19.5335 79.8392 19.2048 79.7139 18.7979 79.7139C18.391 79.7139 18.0638 79.8376 17.8164 80.085C17.5723 80.3324 17.4502 80.6579 17.4502 81.0615C17.4502 81.4652 17.569 81.7826 17.8066 82.0137C18.0475 82.2448 18.3812 82.3604 18.8076 82.3604C19.2308 82.3604 19.5628 82.2448 19.8037 82.0137C20.0446 81.7793 20.165 81.4619 20.165 81.0615ZM18.8076 76.5352C18.4528 76.5352 18.1647 76.6458 17.9434 76.8672C17.7253 77.0853 17.6162 77.3831 17.6162 77.7607C17.6162 78.1221 17.7236 78.415 17.9385 78.6396C18.1566 78.861 18.4463 78.9717 18.8076 78.9717C19.1689 78.9717 19.457 78.861 19.6719 78.6396C19.89 78.415 19.999 78.1221 19.999 77.7607C19.999 77.3994 19.8867 77.1048 19.6621 76.877C19.4375 76.6491 19.1527 76.5352 18.8076 76.5352Z" fill="#252525"/>
<path d="M14.3291 42H13.4209V35.9795L11.5996 36.6484V35.8281L14.1875 34.8564H14.3291V42ZM21.4336 38.9678C21.4336 40.0257 21.2529 40.8118 20.8916 41.3262C20.5303 41.8405 19.9655 42.0977 19.1973 42.0977C18.4388 42.0977 17.8773 41.847 17.5127 41.3457C17.1481 40.8411 16.9593 40.0892 16.9463 39.0898V37.8838C16.9463 36.8389 17.127 36.0625 17.4883 35.5547C17.8496 35.0469 18.416 34.793 19.1875 34.793C19.9525 34.793 20.5156 35.0387 20.877 35.5303C21.2383 36.0186 21.4238 36.7738 21.4336 37.7959V38.9678ZM20.5303 37.7324C20.5303 36.9674 20.4229 36.4108 20.208 36.0625C19.9932 35.7109 19.653 35.5352 19.1875 35.5352C18.7253 35.5352 18.3883 35.7093 18.1768 36.0576C17.9652 36.4059 17.8561 36.9414 17.8496 37.6641V39.1094C17.8496 39.8776 17.9603 40.4456 18.1816 40.8135C18.4062 41.1781 18.7448 41.3604 19.1973 41.3604C19.6432 41.3604 19.9736 41.1878 20.1885 40.8428C20.4066 40.4977 20.5205 39.9541 20.5303 39.2119V37.7324Z" fill="#252525"/>
<path d="M44 127H406" stroke="#B5B5B5"/>
<path d="M44 85H406" stroke="#B5B5B5"/>
<path d="M44 43H406" stroke="#B5B5B5"/>
<path d="M106.048 282.755L108.079 276.891H109.104L106.468 284H105.638L103.006 276.891H104.026L106.048 282.755ZM108.836 283.526C108.836 283.37 108.882 283.24 108.973 283.136C109.067 283.032 109.207 282.979 109.393 282.979C109.578 282.979 109.718 283.032 109.812 283.136C109.91 283.24 109.959 283.37 109.959 283.526C109.959 283.676 109.91 283.801 109.812 283.902C109.718 284.003 109.578 284.054 109.393 284.054C109.207 284.054 109.067 284.003 108.973 283.902C108.882 283.801 108.836 283.676 108.836 283.526ZM112.674 280.006H113.353C113.779 279.999 114.114 279.887 114.358 279.669C114.603 279.451 114.725 279.156 114.725 278.785C114.725 277.952 114.31 277.535 113.479 277.535C113.089 277.535 112.776 277.647 112.542 277.872C112.311 278.093 112.195 278.388 112.195 278.756H111.292C111.292 278.193 111.497 277.726 111.907 277.354C112.321 276.98 112.845 276.793 113.479 276.793C114.15 276.793 114.676 276.97 115.057 277.325C115.438 277.68 115.628 278.173 115.628 278.805C115.628 279.114 115.527 279.413 115.325 279.703C115.127 279.993 114.855 280.209 114.51 280.353C114.9 280.476 115.201 280.681 115.413 280.968C115.628 281.254 115.735 281.604 115.735 282.018C115.735 282.656 115.527 283.162 115.11 283.536C114.694 283.91 114.152 284.098 113.484 284.098C112.817 284.098 112.273 283.917 111.854 283.556C111.437 283.194 111.229 282.717 111.229 282.125H112.137C112.137 282.499 112.259 282.799 112.503 283.023C112.747 283.248 113.074 283.36 113.484 283.36C113.921 283.36 114.254 283.246 114.485 283.019C114.716 282.791 114.832 282.464 114.832 282.037C114.832 281.624 114.705 281.306 114.451 281.085C114.197 280.864 113.831 280.75 113.353 280.743H112.674V280.006ZM120.438 280.875C120.249 281.1 120.022 281.28 119.759 281.417C119.498 281.554 119.212 281.622 118.899 281.622C118.489 281.622 118.131 281.521 117.825 281.319C117.522 281.118 117.288 280.834 117.122 280.47C116.956 280.102 116.873 279.697 116.873 279.254C116.873 278.779 116.963 278.351 117.142 277.97C117.324 277.589 117.581 277.298 117.913 277.096C118.245 276.894 118.632 276.793 119.075 276.793C119.778 276.793 120.332 277.057 120.735 277.584C121.142 278.108 121.346 278.824 121.346 279.732V279.996C121.346 281.38 121.072 282.39 120.525 283.028C119.979 283.663 119.153 283.989 118.05 284.005H117.874V283.243H118.064C118.81 283.23 119.383 283.036 119.783 282.662C120.184 282.285 120.402 281.689 120.438 280.875ZM119.046 280.875C119.349 280.875 119.627 280.782 119.881 280.597C120.138 280.411 120.325 280.182 120.442 279.908V279.547C120.442 278.954 120.314 278.473 120.057 278.102C119.799 277.73 119.474 277.545 119.08 277.545C118.683 277.545 118.364 277.698 118.123 278.004C117.882 278.307 117.762 278.707 117.762 279.205C117.762 279.69 117.877 280.09 118.108 280.406C118.343 280.719 118.655 280.875 119.046 280.875Z" fill="#252525"/>
<path d="M222.048 282.755L224.079 276.891H225.104L222.468 284H221.638L219.006 276.891H220.026L222.048 282.755ZM224.836 283.526C224.836 283.37 224.882 283.24 224.973 283.136C225.067 283.032 225.207 282.979 225.393 282.979C225.578 282.979 225.718 283.032 225.812 283.136C225.91 283.24 225.959 283.37 225.959 283.526C225.959 283.676 225.91 283.801 225.812 283.902C225.718 284.003 225.578 284.054 225.393 284.054C225.207 284.054 225.067 284.003 224.973 283.902C224.882 283.801 224.836 283.676 224.836 283.526ZM228.674 280.006H229.353C229.779 279.999 230.114 279.887 230.358 279.669C230.603 279.451 230.725 279.156 230.725 278.785C230.725 277.952 230.31 277.535 229.479 277.535C229.089 277.535 228.776 277.647 228.542 277.872C228.311 278.093 228.195 278.388 228.195 278.756H227.292C227.292 278.193 227.497 277.726 227.907 277.354C228.321 276.98 228.845 276.793 229.479 276.793C230.15 276.793 230.676 276.97 231.057 277.325C231.438 277.68 231.628 278.173 231.628 278.805C231.628 279.114 231.527 279.413 231.325 279.703C231.127 279.993 230.855 280.209 230.51 280.353C230.9 280.476 231.201 280.681 231.413 280.968C231.628 281.254 231.735 281.604 231.735 282.018C231.735 282.656 231.527 283.162 231.11 283.536C230.694 283.91 230.152 284.098 229.484 284.098C228.817 284.098 228.273 283.917 227.854 283.556C227.437 283.194 227.229 282.717 227.229 282.125H228.137C228.137 282.499 228.259 282.799 228.503 283.023C228.747 283.248 229.074 283.36 229.484 283.36C229.921 283.36 230.254 283.246 230.485 283.019C230.716 282.791 230.832 282.464 230.832 282.037C230.832 281.624 230.705 281.306 230.451 281.085C230.197 280.864 229.831 280.75 229.353 280.743H228.674V280.006ZM237.287 278.746C237.287 279.101 237.193 279.417 237.004 279.693C236.818 279.97 236.566 280.187 236.247 280.343C236.618 280.502 236.911 280.735 237.126 281.041C237.344 281.347 237.453 281.694 237.453 282.081C237.453 282.696 237.245 283.186 236.828 283.551C236.415 283.915 235.869 284.098 235.192 284.098C234.509 284.098 233.96 283.915 233.547 283.551C233.137 283.183 232.932 282.693 232.932 282.081C232.932 281.697 233.036 281.35 233.244 281.041C233.456 280.732 233.747 280.497 234.118 280.338C233.802 280.182 233.553 279.965 233.371 279.688C233.189 279.412 233.098 279.098 233.098 278.746C233.098 278.147 233.29 277.672 233.674 277.32C234.058 276.969 234.564 276.793 235.192 276.793C235.817 276.793 236.322 276.969 236.706 277.32C237.093 277.672 237.287 278.147 237.287 278.746ZM236.55 282.062C236.55 281.664 236.423 281.34 236.169 281.09C235.918 280.839 235.59 280.714 235.183 280.714C234.776 280.714 234.449 280.838 234.201 281.085C233.957 281.332 233.835 281.658 233.835 282.062C233.835 282.465 233.954 282.783 234.191 283.014C234.432 283.245 234.766 283.36 235.192 283.36C235.616 283.36 235.948 283.245 236.188 283.014C236.429 282.779 236.55 282.462 236.55 282.062ZM235.192 277.535C234.838 277.535 234.549 277.646 234.328 277.867C234.11 278.085 234.001 278.383 234.001 278.761C234.001 279.122 234.108 279.415 234.323 279.64C234.541 279.861 234.831 279.972 235.192 279.972C235.554 279.972 235.842 279.861 236.057 279.64C236.275 279.415 236.384 279.122 236.384 278.761C236.384 278.399 236.271 278.105 236.047 277.877C235.822 277.649 235.537 277.535 235.192 277.535Z" fill="#252525"/>
<path d="M44 169H406" stroke="#B5B5B5"/>
<path d="M44 211H406" stroke="#B5B5B5"/>
<path d="M44 253H406" stroke="#B5B5B5"/>
<path d="M110 189C110 187.343 111.343 186 113 186V186C114.657 186 116 187.343 116 189V253H110V189Z" fill="#0A1596"/>
<path d="M51 237C51 235.343 52.3431 234 54 234V234C55.6569 234 57 235.343 57 237V253H51V237Z" fill="#0A1596"/>
<path d="M167 151C167 149.343 168.343 148 170 148V148C171.657 148 173 149.343 173 151V253H167V151Z" fill="#0A1596"/>
<path d="M225 214C225 212.343 226.343 211 228 211V211C229.657 211 231 212.343 231 214V253H225V214Z" fill="#0A1596"/>
<path d="M284 85C284 83.3431 285.343 82 287 82V82C288.657 82 290 83.3431 290 85V253H284V85Z" fill="#0A1596"/>
<path d="M341 129C341 127.343 342.343 126 344 126V126C345.657 126 347 127.343 347 129V253H341V129Z" fill="#0A1596"/>
<path d="M399 167C399 165.343 400.343 164 402 164V164C403.657 164 405 165.343 405 167V253H399V167Z" fill="#0A1596"/>
</svg>
