<svg width="414" height="287" viewBox="0 0 414 287" fill="none" xmlns="http://www.w3.org/2000/svg">
<path d="M10.3496 7.83008V11H8.86719V2.46875H12.1309C13.084 2.46875 13.8398 2.7168 14.3984 3.21289C14.9609 3.70898 15.2422 4.36523 15.2422 5.18164C15.2422 6.01758 14.9668 6.66797 14.416 7.13281C13.8691 7.59766 13.1016 7.83008 12.1133 7.83008H10.3496ZM10.3496 6.64062H12.1309C12.6582 6.64062 13.0605 6.51758 13.3379 6.27148C13.6152 6.02148 13.7539 5.66211 13.7539 5.19336C13.7539 4.73242 13.6133 4.36523 13.332 4.0918C13.0508 3.81445 12.6641 3.67187 12.1719 3.66406H10.3496V6.64062ZM24.3116 6.95703C24.3116 7.79297 24.167 8.52734 23.878 9.16016C23.5889 9.78906 23.1748 10.2734 22.6358 10.6133C22.1006 10.9492 21.4834 11.1172 20.7842 11.1172C20.0928 11.1172 19.4756 10.9492 18.9327 10.6133C18.3936 10.2734 17.9756 9.79102 17.6788 9.16602C17.3858 8.54102 17.2373 7.82031 17.2334 7.00391V6.52344C17.2334 5.69141 17.3799 4.95703 17.6729 4.32031C17.9698 3.68359 18.3858 3.19727 18.9209 2.86133C19.46 2.52148 20.0772 2.35156 20.7725 2.35156C21.4678 2.35156 22.083 2.51953 22.6182 2.85547C23.1573 3.1875 23.5733 3.66797 23.8663 4.29688C24.1592 4.92188 24.3077 5.65039 24.3116 6.48242V6.95703ZM22.8291 6.51172C22.8291 5.56641 22.6495 4.8418 22.2901 4.33789C21.9346 3.83398 21.4288 3.58203 20.7725 3.58203C20.1319 3.58203 19.6299 3.83398 19.2666 4.33789C18.9073 4.83789 18.7237 5.54688 18.7159 6.46484V6.95703C18.7159 7.89453 18.8975 8.61914 19.2608 9.13086C19.628 9.64258 20.1358 9.89844 20.7842 9.89844C21.4405 9.89844 21.9444 9.64844 22.2959 9.14844C22.6514 8.64844 22.8291 7.91797 22.8291 6.95703V6.51172ZM31.3946 9.01367H28.0899L27.3985 11H25.8575L29.0802 2.46875H30.4102L33.6388 11H32.0919L31.3946 9.01367ZM28.5059 7.81836H30.9786L29.7423 4.2793L28.5059 7.81836ZM27.6915 1.17969C27.6915 0.984375 27.7559 0.820313 27.8848 0.6875C28.0177 0.554687 28.1993 0.488281 28.4298 0.488281C28.6602 0.488281 28.8419 0.554687 28.9747 0.6875C29.1075 0.820313 29.1739 0.984375 29.1739 1.17969C29.1739 1.375 29.1075 1.53906 28.9747 1.67188C28.8419 1.80469 28.6602 1.87109 28.4298 1.87109C28.1993 1.87109 28.0177 1.80469 27.8848 1.67188C27.7559 1.53906 27.6915 1.375 27.6915 1.17969ZM30.3692 1.18555C30.3692 0.990234 30.4337 0.826172 30.5626 0.693359C30.6954 0.560547 30.877 0.494141 31.1075 0.494141C31.338 0.494141 31.5196 0.560547 31.6524 0.693359C31.7852 0.826172 31.8516 0.990234 31.8516 1.18555C31.8516 1.38086 31.7852 1.54492 31.6524 1.67773C31.5196 1.81055 31.338 1.87695 31.1075 1.87695C30.877 1.87695 30.6954 1.81055 30.5626 1.67773C30.4337 1.54492 30.3692 1.38086 30.3692 1.18555ZM42.339 11H40.8566L37.0538 4.94727V11H35.5714V2.46875H37.0538L40.8683 8.54492V2.46875H42.339V11ZM51.59 9.89258C51.2814 10.2949 50.8537 10.5996 50.3068 10.8066C49.7599 11.0137 49.1388 11.1172 48.4435 11.1172C47.7287 11.1172 47.0959 10.9551 46.5451 10.6309C45.9943 10.3066 45.5685 9.84375 45.2677 9.24219C44.9709 8.63672 44.8166 7.93164 44.8048 7.12695V6.45898C44.8048 5.16992 45.1134 4.16406 45.7306 3.44141C46.3478 2.71484 47.2091 2.35156 48.3146 2.35156C49.2638 2.35156 50.0177 2.58594 50.5763 3.05469C51.1349 3.52344 51.4709 4.19922 51.5841 5.08203H50.131C49.967 4.05469 49.3713 3.54102 48.3439 3.54102C47.6798 3.54102 47.174 3.78125 46.8263 4.26172C46.4826 4.73828 46.3048 5.43945 46.2931 6.36523V7.02148C46.2931 7.94336 46.4865 8.66016 46.8732 9.17188C47.2638 9.67969 47.8048 9.93359 48.4963 9.93359C49.2541 9.93359 49.7931 9.76172 50.1134 9.41797V7.74805H48.3556V6.62305H51.59V9.89258Z" fill="#252525"/>
<path d="M47.1787 282.755L49.21 276.891H50.2354L47.5986 284H46.7686L44.1367 276.891H45.1572L47.1787 282.755ZM49.9668 283.526C49.9668 283.37 50.0124 283.24 50.1035 283.136C50.1979 283.032 50.3379 282.979 50.5234 282.979C50.709 282.979 50.849 283.032 50.9434 283.136C51.041 283.24 51.0898 283.37 51.0898 283.526C51.0898 283.676 51.041 283.801 50.9434 283.902C50.849 284.003 50.709 284.054 50.5234 284.054C50.3379 284.054 50.1979 284.003 50.1035 283.902C50.0124 283.801 49.9668 283.676 49.9668 283.526ZM53.8047 280.006H54.4834C54.9098 279.999 55.2451 279.887 55.4893 279.669C55.7334 279.451 55.8555 279.156 55.8555 278.785C55.8555 277.952 55.4404 277.535 54.6104 277.535C54.2197 277.535 53.9072 277.647 53.6729 277.872C53.4417 278.093 53.3262 278.388 53.3262 278.756H52.4229C52.4229 278.193 52.6279 277.726 53.0381 277.354C53.4515 276.98 53.9756 276.793 54.6104 276.793C55.2809 276.793 55.8066 276.97 56.1875 277.325C56.5684 277.68 56.7588 278.173 56.7588 278.805C56.7588 279.114 56.6579 279.413 56.4561 279.703C56.2575 279.993 55.9857 280.209 55.6406 280.353C56.0312 280.476 56.3324 280.681 56.5439 280.968C56.7588 281.254 56.8662 281.604 56.8662 282.018C56.8662 282.656 56.6579 283.162 56.2412 283.536C55.8245 283.91 55.2826 284.098 54.6152 284.098C53.9479 284.098 53.4043 283.917 52.9844 283.556C52.5677 283.194 52.3594 282.717 52.3594 282.125H53.2676C53.2676 282.499 53.3896 282.799 53.6338 283.023C53.8779 283.248 54.2051 283.36 54.6152 283.36C55.0514 283.36 55.3851 283.246 55.6162 283.019C55.8473 282.791 55.9629 282.464 55.9629 282.037C55.9629 281.624 55.8359 281.306 55.582 281.085C55.3281 280.864 54.9619 280.75 54.4834 280.743H53.8047V280.006ZM58.5215 280.436L58.8828 276.891H62.5254V277.726H59.6494L59.4346 279.664C59.7829 279.459 60.1784 279.356 60.6211 279.356C61.2689 279.356 61.7832 279.571 62.1641 280.001C62.5449 280.427 62.7354 281.005 62.7354 281.734C62.7354 282.467 62.5368 283.045 62.1396 283.468C61.7458 283.888 61.194 284.098 60.4844 284.098C59.8561 284.098 59.3434 283.924 58.9463 283.575C58.5492 283.227 58.3229 282.745 58.2676 282.13H59.1221C59.1774 282.537 59.3223 282.844 59.5566 283.053C59.791 283.258 60.1003 283.36 60.4844 283.36C60.9043 283.36 61.2331 283.217 61.4707 282.931C61.7116 282.644 61.832 282.249 61.832 281.744C61.832 281.269 61.7018 280.888 61.4414 280.602C61.1842 280.312 60.8408 280.167 60.4111 280.167C60.0173 280.167 59.708 280.253 59.4834 280.426L59.2441 280.621L58.5215 280.436Z" fill="#252525"/>
<path d="M164.048 282.755L166.079 276.891H167.104L164.468 284H163.638L161.006 276.891H162.026L164.048 282.755ZM166.836 283.526C166.836 283.37 166.882 283.24 166.973 283.136C167.067 283.032 167.207 282.979 167.393 282.979C167.578 282.979 167.718 283.032 167.812 283.136C167.91 283.24 167.959 283.37 167.959 283.526C167.959 283.676 167.91 283.801 167.812 283.902C167.718 284.003 167.578 284.054 167.393 284.054C167.207 284.054 167.067 284.003 166.973 283.902C166.882 283.801 166.836 283.676 166.836 283.526ZM170.674 280.006H171.353C171.779 279.999 172.114 279.887 172.358 279.669C172.603 279.451 172.725 279.156 172.725 278.785C172.725 277.952 172.31 277.535 171.479 277.535C171.089 277.535 170.776 277.647 170.542 277.872C170.311 278.093 170.195 278.388 170.195 278.756H169.292C169.292 278.193 169.497 277.726 169.907 277.354C170.321 276.98 170.845 276.793 171.479 276.793C172.15 276.793 172.676 276.97 173.057 277.325C173.438 277.68 173.628 278.173 173.628 278.805C173.628 279.114 173.527 279.413 173.325 279.703C173.127 279.993 172.855 280.209 172.51 280.353C172.9 280.476 173.201 280.681 173.413 280.968C173.628 281.254 173.735 281.604 173.735 282.018C173.735 282.656 173.527 283.162 173.11 283.536C172.694 283.91 172.152 284.098 171.484 284.098C170.817 284.098 170.273 283.917 169.854 283.556C169.437 283.194 169.229 282.717 169.229 282.125H170.137C170.137 282.499 170.259 282.799 170.503 283.023C170.747 283.248 171.074 283.36 171.484 283.36C171.921 283.36 172.254 283.246 172.485 283.019C172.716 282.791 172.832 282.464 172.832 282.037C172.832 281.624 172.705 281.306 172.451 281.085C172.197 280.864 171.831 280.75 171.353 280.743H170.674V280.006ZM179.565 277.398L176.621 284H175.674L178.608 277.633H174.761V276.891H179.565V277.398Z" fill="#252525"/>
<path d="M280.048 282.755L282.079 276.891H283.104L280.468 284H279.638L277.006 276.891H278.026L280.048 282.755ZM282.836 283.526C282.836 283.37 282.882 283.24 282.973 283.136C283.067 283.032 283.207 282.979 283.393 282.979C283.578 282.979 283.718 283.032 283.812 283.136C283.91 283.24 283.959 283.37 283.959 283.526C283.959 283.676 283.91 283.801 283.812 283.902C283.718 284.003 283.578 284.054 283.393 284.054C283.207 284.054 283.067 284.003 282.973 283.902C282.882 283.801 282.836 283.676 282.836 283.526ZM286.674 280.006H287.353C287.779 279.999 288.114 279.887 288.358 279.669C288.603 279.451 288.725 279.156 288.725 278.785C288.725 277.952 288.31 277.535 287.479 277.535C287.089 277.535 286.776 277.647 286.542 277.872C286.311 278.093 286.195 278.388 286.195 278.756H285.292C285.292 278.193 285.497 277.726 285.907 277.354C286.321 276.98 286.845 276.793 287.479 276.793C288.15 276.793 288.676 276.97 289.057 277.325C289.438 277.68 289.628 278.173 289.628 278.805C289.628 279.114 289.527 279.413 289.325 279.703C289.127 279.993 288.855 280.209 288.51 280.353C288.9 280.476 289.201 280.681 289.413 280.968C289.628 281.254 289.735 281.604 289.735 282.018C289.735 282.656 289.527 283.162 289.11 283.536C288.694 283.91 288.152 284.098 287.484 284.098C286.817 284.098 286.273 283.917 285.854 283.556C285.437 283.194 285.229 282.717 285.229 282.125H286.137C286.137 282.499 286.259 282.799 286.503 283.023C286.747 283.248 287.074 283.36 287.484 283.36C287.921 283.36 288.254 283.246 288.485 283.019C288.716 282.791 288.832 282.464 288.832 282.037C288.832 281.624 288.705 281.306 288.451 281.085C288.197 280.864 287.831 280.75 287.353 280.743H286.674V280.006ZM294.438 280.875C294.249 281.1 294.022 281.28 293.759 281.417C293.498 281.554 293.212 281.622 292.899 281.622C292.489 281.622 292.131 281.521 291.825 281.319C291.522 281.118 291.288 280.834 291.122 280.47C290.956 280.102 290.873 279.697 290.873 279.254C290.873 278.779 290.963 278.351 291.142 277.97C291.324 277.589 291.581 277.298 291.913 277.096C292.245 276.894 292.632 276.793 293.075 276.793C293.778 276.793 294.332 277.057 294.735 277.584C295.142 278.108 295.346 278.824 295.346 279.732V279.996C295.346 281.38 295.072 282.39 294.525 283.028C293.979 283.663 293.153 283.989 292.05 284.005H291.874V283.243H292.064C292.81 283.23 293.383 283.036 293.783 282.662C294.184 282.285 294.402 281.689 294.438 280.875ZM293.046 280.875C293.349 280.875 293.627 280.782 293.881 280.597C294.138 280.411 294.325 280.182 294.442 279.908V279.547C294.442 278.954 294.314 278.473 294.057 278.102C293.799 277.73 293.474 277.545 293.08 277.545C292.683 277.545 292.364 277.698 292.123 278.004C291.882 278.307 291.762 278.707 291.762 279.205C291.762 279.69 291.877 280.09 292.108 280.406C292.343 280.719 292.655 280.875 293.046 280.875Z" fill="#252525"/>
<path d="M338.048 282.755L340.079 276.891H341.104L338.468 284H337.638L335.006 276.891H336.026L338.048 282.755ZM340.836 283.526C340.836 283.37 340.882 283.24 340.973 283.136C341.067 283.032 341.207 282.979 341.393 282.979C341.578 282.979 341.718 283.032 341.812 283.136C341.91 283.24 341.959 283.37 341.959 283.526C341.959 283.676 341.91 283.801 341.812 283.902C341.718 284.003 341.578 284.054 341.393 284.054C341.207 284.054 341.067 284.003 340.973 283.902C340.882 283.801 340.836 283.676 340.836 283.526ZM347.174 281.612H348.16V282.35H347.174V284H346.266V282.35H343.028V281.817L346.212 276.891H347.174V281.612ZM344.054 281.612H346.266V278.126L346.158 278.321L344.054 281.612ZM353.434 280.968C353.434 282.026 353.253 282.812 352.892 283.326C352.53 283.84 351.965 284.098 351.197 284.098C350.439 284.098 349.877 283.847 349.513 283.346C349.148 282.841 348.959 282.089 348.946 281.09V279.884C348.946 278.839 349.127 278.062 349.488 277.555C349.85 277.047 350.416 276.793 351.188 276.793C351.952 276.793 352.516 277.039 352.877 277.53C353.238 278.019 353.424 278.774 353.434 279.796V280.968ZM352.53 279.732C352.53 278.967 352.423 278.411 352.208 278.062C351.993 277.711 351.653 277.535 351.188 277.535C350.725 277.535 350.388 277.709 350.177 278.058C349.965 278.406 349.856 278.941 349.85 279.664V281.109C349.85 281.878 349.96 282.446 350.182 282.813C350.406 283.178 350.745 283.36 351.197 283.36C351.643 283.36 351.974 283.188 352.188 282.843C352.407 282.498 352.521 281.954 352.53 281.212V279.732Z" fill="#252525"/>
<path d="M396.048 282.755L398.079 276.891H399.104L396.468 284H395.638L393.006 276.891H394.026L396.048 282.755ZM398.836 283.526C398.836 283.37 398.882 283.24 398.973 283.136C399.067 283.032 399.207 282.979 399.393 282.979C399.578 282.979 399.718 283.032 399.812 283.136C399.91 283.24 399.959 283.37 399.959 283.526C399.959 283.676 399.91 283.801 399.812 283.902C399.718 284.003 399.578 284.054 399.393 284.054C399.207 284.054 399.067 284.003 398.973 283.902C398.882 283.801 398.836 283.676 398.836 283.526ZM405.174 281.612H406.16V282.35H405.174V284H404.266V282.35H401.028V281.817L404.212 276.891H405.174V281.612ZM402.054 281.612H404.266V278.126L404.158 278.321L402.054 281.612ZM409.944 284H409.036V277.979L407.215 278.648V277.828L409.803 276.856H409.944V284Z" fill="#252525"/>
<path d="M21.4336 251.968C21.4336 253.026 21.2529 253.812 20.8916 254.326C20.5303 254.84 19.9655 255.098 19.1973 255.098C18.4388 255.098 17.8773 254.847 17.5127 254.346C17.1481 253.841 16.9593 253.089 16.9463 252.09V250.884C16.9463 249.839 17.127 249.062 17.4883 248.555C17.8496 248.047 18.416 247.793 19.1875 247.793C19.9525 247.793 20.5156 248.039 20.877 248.53C21.2383 249.019 21.4238 249.774 21.4336 250.796V251.968ZM20.5303 250.732C20.5303 249.967 20.4229 249.411 20.208 249.062C19.9932 248.711 19.653 248.535 19.1875 248.535C18.7253 248.535 18.3883 248.709 18.1768 249.058C17.9652 249.406 17.8561 249.941 17.8496 250.664V252.109C17.8496 252.878 17.9603 253.446 18.1816 253.813C18.4062 254.178 18.7448 254.36 19.1973 254.36C19.6432 254.36 19.9736 254.188 20.1885 253.843C20.4066 253.498 20.5205 252.954 20.5303 252.212V250.732Z" fill="black"/>
<path d="M13.1816 208.968C13.1816 210.026 13.001 210.812 12.6396 211.326C12.2783 211.84 11.7135 212.098 10.9453 212.098C10.1868 212.098 9.62533 211.847 9.26074 211.346C8.89616 210.841 8.70736 210.089 8.69434 209.09V207.884C8.69434 206.839 8.875 206.062 9.23633 205.555C9.59766 205.047 10.1641 204.793 10.9355 204.793C11.7005 204.793 12.2637 205.039 12.625 205.53C12.9863 206.019 13.1719 206.774 13.1816 207.796V208.968ZM12.2783 207.732C12.2783 206.967 12.1709 206.411 11.9561 206.062C11.7412 205.711 11.401 205.535 10.9355 205.535C10.4733 205.535 10.1364 205.709 9.9248 206.058C9.71322 206.406 9.60417 206.941 9.59766 207.664V209.109C9.59766 209.878 9.70833 210.446 9.92969 210.813C10.1543 211.178 10.4928 211.36 10.9453 211.36C11.3913 211.36 11.7217 211.188 11.9365 210.843C12.1546 210.498 12.2686 209.954 12.2783 209.212V207.732ZM14.4512 211.526C14.4512 211.37 14.4967 211.24 14.5879 211.136C14.6823 211.032 14.8223 210.979 15.0078 210.979C15.1934 210.979 15.3333 211.032 15.4277 211.136C15.5254 211.24 15.5742 211.37 15.5742 211.526C15.5742 211.676 15.5254 211.801 15.4277 211.902C15.3333 212.003 15.1934 212.054 15.0078 212.054C14.8223 212.054 14.6823 212.003 14.5879 211.902C14.4967 211.801 14.4512 211.676 14.4512 211.526ZM20.7891 209.612H21.7754V210.35H20.7891V212H19.8809V210.35H16.6436V209.817L19.8271 204.891H20.7891V209.612ZM17.6689 209.612H19.8809V206.126L19.7734 206.321L17.6689 209.612Z" fill="#252525"/>
<path d="M13.0488 165.968C13.0488 167.026 12.8682 167.812 12.5068 168.326C12.1455 168.84 11.5807 169.098 10.8125 169.098C10.054 169.098 9.49251 168.847 9.12793 168.346C8.76335 167.841 8.57454 167.089 8.56152 166.09V164.884C8.56152 163.839 8.74219 163.062 9.10352 162.555C9.46484 162.047 10.0312 161.793 10.8027 161.793C11.5677 161.793 12.1309 162.039 12.4922 162.53C12.8535 163.019 13.0391 163.774 13.0488 164.796V165.968ZM12.1455 164.732C12.1455 163.967 12.0381 163.411 11.8232 163.062C11.6084 162.711 11.2682 162.535 10.8027 162.535C10.3405 162.535 10.0036 162.709 9.79199 163.058C9.5804 163.406 9.47135 163.941 9.46484 164.664V166.109C9.46484 166.878 9.57552 167.446 9.79688 167.813C10.0215 168.178 10.36 168.36 10.8125 168.36C11.2585 168.36 11.5889 168.188 11.8037 167.843C12.0218 167.498 12.1357 166.954 12.1455 166.212V164.732ZM14.2695 170.416L13.7568 170.064C14.0628 169.638 14.2223 169.199 14.2354 168.746V167.931H15.1191V168.639C15.1191 168.967 15.0378 169.296 14.875 169.625C14.7155 169.954 14.5137 170.217 14.2695 170.416ZM20.4805 163.746C20.4805 164.101 20.3861 164.417 20.1973 164.693C20.0117 164.97 19.7594 165.187 19.4404 165.343C19.8115 165.502 20.1045 165.735 20.3193 166.041C20.5374 166.347 20.6465 166.694 20.6465 167.081C20.6465 167.696 20.4382 168.186 20.0215 168.551C19.6081 168.915 19.0628 169.098 18.3857 169.098C17.7021 169.098 17.1536 168.915 16.7402 168.551C16.3301 168.183 16.125 167.693 16.125 167.081C16.125 166.697 16.2292 166.35 16.4375 166.041C16.6491 165.732 16.9404 165.497 17.3115 165.338C16.9958 165.182 16.7467 164.965 16.5645 164.688C16.3822 164.412 16.291 164.098 16.291 163.746C16.291 163.147 16.4831 162.672 16.8672 162.32C17.2513 161.969 17.7575 161.793 18.3857 161.793C19.0107 161.793 19.5153 161.969 19.8994 162.32C20.2868 162.672 20.4805 163.147 20.4805 163.746ZM19.7432 167.062C19.7432 166.664 19.6162 166.34 19.3623 166.09C19.1117 165.839 18.7829 165.714 18.376 165.714C17.9691 165.714 17.6419 165.838 17.3945 166.085C17.1504 166.332 17.0283 166.658 17.0283 167.062C17.0283 167.465 17.1471 167.783 17.3848 168.014C17.6257 168.245 17.9593 168.36 18.3857 168.36C18.8089 168.36 19.141 168.245 19.3818 168.014C19.6227 167.779 19.7432 167.462 19.7432 167.062ZM18.3857 162.535C18.0309 162.535 17.7428 162.646 17.5215 162.867C17.3034 163.085 17.1943 163.383 17.1943 163.761C17.1943 164.122 17.3018 164.415 17.5166 164.64C17.7347 164.861 18.0244 164.972 18.3857 164.972C18.7471 164.972 19.0352 164.861 19.25 164.64C19.4681 164.415 19.5771 164.122 19.5771 163.761C19.5771 163.399 19.4648 163.105 19.2402 162.877C19.0156 162.649 18.7308 162.535 18.3857 162.535Z" fill="#252525"/>
<path d="M11.5596 126H10.6514V119.979L8.83008 120.648V119.828L11.418 118.856H11.5596V126ZM14.2695 127.416L13.7568 127.064C14.0628 126.638 14.2223 126.199 14.2354 125.746V124.931H15.1191V125.639C15.1191 125.967 15.0378 126.296 14.875 126.625C14.7155 126.954 14.5137 127.217 14.2695 127.416ZM20.8271 126H16.1689V125.351L18.6299 122.616C18.9945 122.203 19.2451 121.868 19.3818 121.61C19.5218 121.35 19.5918 121.081 19.5918 120.805C19.5918 120.434 19.4795 120.129 19.2549 119.892C19.0303 119.654 18.7308 119.535 18.3564 119.535C17.9072 119.535 17.5573 119.664 17.3066 119.921C17.0592 120.175 16.9355 120.53 16.9355 120.985H16.0322C16.0322 120.331 16.2422 119.802 16.6621 119.398C17.0853 118.995 17.6501 118.793 18.3564 118.793C19.0173 118.793 19.5397 118.967 19.9238 119.315C20.3079 119.66 20.5 120.121 20.5 120.697C20.5 121.397 20.054 122.23 19.1621 123.197L17.2578 125.263H20.8271V126Z" fill="#252525"/>
<path d="M11.5596 83H10.6514V76.9795L8.83008 77.6484V76.8281L11.418 75.8564H11.5596V83ZM14.3184 82.5264C14.3184 82.3701 14.3639 82.2399 14.4551 82.1357C14.5495 82.0316 14.6895 81.9795 14.875 81.9795C15.0605 81.9795 15.2005 82.0316 15.2949 82.1357C15.3926 82.2399 15.4414 82.3701 15.4414 82.5264C15.4414 82.6761 15.3926 82.8014 15.2949 82.9023C15.2005 83.0033 15.0605 83.0537 14.875 83.0537C14.6895 83.0537 14.5495 83.0033 14.4551 82.9023C14.3639 82.8014 14.3184 82.6761 14.3184 82.5264ZM20.3877 75.8857V76.6523H20.2217C19.5186 76.6654 18.9587 76.8737 18.542 77.2773C18.1253 77.681 17.8844 78.249 17.8193 78.9814C18.1937 78.5518 18.7048 78.3369 19.3525 78.3369C19.971 78.3369 20.4642 78.555 20.832 78.9912C21.2031 79.4274 21.3887 79.9906 21.3887 80.6807C21.3887 81.4131 21.1885 81.999 20.7881 82.4385C20.391 82.8779 19.8571 83.0977 19.1865 83.0977C18.5062 83.0977 17.9544 82.8372 17.5312 82.3164C17.1081 81.7923 16.8965 81.1185 16.8965 80.2949V79.9482C16.8965 78.6396 17.1748 77.6403 17.7314 76.9502C18.2913 76.2568 19.123 75.902 20.2266 75.8857H20.3877ZM19.2012 79.0889C18.8919 79.0889 18.6071 79.1816 18.3467 79.3672C18.0863 79.5527 17.9056 79.7855 17.8047 80.0654V80.3975C17.8047 80.9834 17.9365 81.4554 18.2002 81.8135C18.4639 82.1715 18.7926 82.3506 19.1865 82.3506C19.5934 82.3506 19.9124 82.2008 20.1436 81.9014C20.3779 81.6019 20.4951 81.2096 20.4951 80.7246C20.4951 80.2363 20.3763 79.8424 20.1387 79.543C19.9043 79.2402 19.5918 79.0889 19.2012 79.0889Z" fill="#252525"/>
<path d="M13.3818 42H8.72363V41.3506L11.1846 38.6162C11.5492 38.2028 11.7998 37.8675 11.9365 37.6104C12.0765 37.3499 12.1465 37.0814 12.1465 36.8047C12.1465 36.4336 12.0342 36.1292 11.8096 35.8916C11.585 35.654 11.2855 35.5352 10.9111 35.5352C10.4619 35.5352 10.112 35.6637 9.86133 35.9209C9.61393 36.1748 9.49023 36.5296 9.49023 36.9854H8.58691C8.58691 36.3311 8.79688 35.8021 9.2168 35.3984C9.63997 34.9948 10.2048 34.793 10.9111 34.793C11.5719 34.793 12.0944 34.9671 12.4785 35.3154C12.8626 35.6605 13.0547 36.1211 13.0547 36.6973C13.0547 37.3971 12.6087 38.2305 11.7168 39.1973L9.8125 41.2627H13.3818V42ZM14.4512 41.5264C14.4512 41.3701 14.4967 41.2399 14.5879 41.1357C14.6823 41.0316 14.8223 40.9795 15.0078 40.9795C15.1934 40.9795 15.3333 41.0316 15.4277 41.1357C15.5254 41.2399 15.5742 41.3701 15.5742 41.5264C15.5742 41.6761 15.5254 41.8014 15.4277 41.9023C15.3333 42.0033 15.1934 42.0537 15.0078 42.0537C14.8223 42.0537 14.6823 42.0033 14.5879 41.9023C14.4967 41.8014 14.4512 41.6761 14.4512 41.5264ZM21.4336 38.9678C21.4336 40.0257 21.2529 40.8118 20.8916 41.3262C20.5303 41.8405 19.9655 42.0977 19.1973 42.0977C18.4388 42.0977 17.8773 41.847 17.5127 41.3457C17.1481 40.8411 16.9593 40.0892 16.9463 39.0898V37.8838C16.9463 36.8389 17.127 36.0625 17.4883 35.5547C17.8496 35.0469 18.416 34.793 19.1875 34.793C19.9525 34.793 20.5156 35.0387 20.877 35.5303C21.2383 36.0186 21.4238 36.7738 21.4336 37.7959V38.9678ZM20.5303 37.7324C20.5303 36.9674 20.4229 36.4108 20.208 36.0625C19.9932 35.7109 19.653 35.5352 19.1875 35.5352C18.7253 35.5352 18.3883 35.7093 18.1768 36.0576C17.9652 36.4059 17.8561 36.9414 17.8496 37.6641V39.1094C17.8496 39.8776 17.9603 40.4456 18.1816 40.8135C18.4062 41.1781 18.7448 41.3604 19.1973 41.3604C19.6432 41.3604 19.9736 41.1878 20.1885 40.8428C20.4066 40.4977 20.5205 39.9541 20.5303 39.2119V37.7324Z" fill="#252525"/>
<path d="M44 127H406" stroke="#B5B5B5"/>
<path d="M44 85H406" stroke="#B5B5B5"/>
<path d="M44 42H406" stroke="#B5B5B5"/>
<path d="M106.048 282.755L108.079 276.891H109.104L106.468 284H105.638L103.006 276.891H104.026L106.048 282.755ZM108.836 283.526C108.836 283.37 108.882 283.24 108.973 283.136C109.067 283.032 109.207 282.979 109.393 282.979C109.578 282.979 109.718 283.032 109.812 283.136C109.91 283.24 109.959 283.37 109.959 283.526C109.959 283.676 109.91 283.801 109.812 283.902C109.718 284.003 109.578 284.054 109.393 284.054C109.207 284.054 109.067 284.003 108.973 283.902C108.882 283.801 108.836 283.676 108.836 283.526ZM112.674 280.006H113.353C113.779 279.999 114.114 279.887 114.358 279.669C114.603 279.451 114.725 279.156 114.725 278.785C114.725 277.952 114.31 277.535 113.479 277.535C113.089 277.535 112.776 277.647 112.542 277.872C112.311 278.093 112.195 278.388 112.195 278.756H111.292C111.292 278.193 111.497 277.726 111.907 277.354C112.321 276.98 112.845 276.793 113.479 276.793C114.15 276.793 114.676 276.97 115.057 277.325C115.438 277.68 115.628 278.173 115.628 278.805C115.628 279.114 115.527 279.413 115.325 279.703C115.127 279.993 114.855 280.209 114.51 280.353C114.9 280.476 115.201 280.681 115.413 280.968C115.628 281.254 115.735 281.604 115.735 282.018C115.735 282.656 115.527 283.162 115.11 283.536C114.694 283.91 114.152 284.098 113.484 284.098C112.817 284.098 112.273 283.917 111.854 283.556C111.437 283.194 111.229 282.717 111.229 282.125H112.137C112.137 282.499 112.259 282.799 112.503 283.023C112.747 283.248 113.074 283.36 113.484 283.36C113.921 283.36 114.254 283.246 114.485 283.019C114.716 282.791 114.832 282.464 114.832 282.037C114.832 281.624 114.705 281.306 114.451 281.085C114.197 280.864 113.831 280.75 113.353 280.743H112.674V280.006ZM120.438 280.875C120.249 281.1 120.022 281.28 119.759 281.417C119.498 281.554 119.212 281.622 118.899 281.622C118.489 281.622 118.131 281.521 117.825 281.319C117.522 281.118 117.288 280.834 117.122 280.47C116.956 280.102 116.873 279.697 116.873 279.254C116.873 278.779 116.963 278.351 117.142 277.97C117.324 277.589 117.581 277.298 117.913 277.096C118.245 276.894 118.632 276.793 119.075 276.793C119.778 276.793 120.332 277.057 120.735 277.584C121.142 278.108 121.346 278.824 121.346 279.732V279.996C121.346 281.38 121.072 282.39 120.525 283.028C119.979 283.663 119.153 283.989 118.05 284.005H117.874V283.243H118.064C118.81 283.23 119.383 283.036 119.783 282.662C120.184 282.285 120.402 281.689 120.438 280.875ZM119.046 280.875C119.349 280.875 119.627 280.782 119.881 280.597C120.138 280.411 120.325 280.182 120.442 279.908V279.547C120.442 278.954 120.314 278.473 120.057 278.102C119.799 277.73 119.474 277.545 119.08 277.545C118.683 277.545 118.364 277.698 118.123 278.004C117.882 278.307 117.762 278.707 117.762 279.205C117.762 279.69 117.877 280.09 118.108 280.406C118.343 280.719 118.655 280.875 119.046 280.875Z" fill="#252525"/>
<path d="M222.048 282.755L224.079 276.891H225.104L222.468 284H221.638L219.006 276.891H220.026L222.048 282.755ZM224.836 283.526C224.836 283.37 224.882 283.24 224.973 283.136C225.067 283.032 225.207 282.979 225.393 282.979C225.578 282.979 225.718 283.032 225.812 283.136C225.91 283.24 225.959 283.37 225.959 283.526C225.959 283.676 225.91 283.801 225.812 283.902C225.718 284.003 225.578 284.054 225.393 284.054C225.207 284.054 225.067 284.003 224.973 283.902C224.882 283.801 224.836 283.676 224.836 283.526ZM228.674 280.006H229.353C229.779 279.999 230.114 279.887 230.358 279.669C230.603 279.451 230.725 279.156 230.725 278.785C230.725 277.952 230.31 277.535 229.479 277.535C229.089 277.535 228.776 277.647 228.542 277.872C228.311 278.093 228.195 278.388 228.195 278.756H227.292C227.292 278.193 227.497 277.726 227.907 277.354C228.321 276.98 228.845 276.793 229.479 276.793C230.15 276.793 230.676 276.97 231.057 277.325C231.438 277.68 231.628 278.173 231.628 278.805C231.628 279.114 231.527 279.413 231.325 279.703C231.127 279.993 230.855 280.209 230.51 280.353C230.9 280.476 231.201 280.681 231.413 280.968C231.628 281.254 231.735 281.604 231.735 282.018C231.735 282.656 231.527 283.162 231.11 283.536C230.694 283.91 230.152 284.098 229.484 284.098C228.817 284.098 228.273 283.917 227.854 283.556C227.437 283.194 227.229 282.717 227.229 282.125H228.137C228.137 282.499 228.259 282.799 228.503 283.023C228.747 283.248 229.074 283.36 229.484 283.36C229.921 283.36 230.254 283.246 230.485 283.019C230.716 282.791 230.832 282.464 230.832 282.037C230.832 281.624 230.705 281.306 230.451 281.085C230.197 280.864 229.831 280.75 229.353 280.743H228.674V280.006ZM237.287 278.746C237.287 279.101 237.193 279.417 237.004 279.693C236.818 279.97 236.566 280.187 236.247 280.343C236.618 280.502 236.911 280.735 237.126 281.041C237.344 281.347 237.453 281.694 237.453 282.081C237.453 282.696 237.245 283.186 236.828 283.551C236.415 283.915 235.869 284.098 235.192 284.098C234.509 284.098 233.96 283.915 233.547 283.551C233.137 283.183 232.932 282.693 232.932 282.081C232.932 281.697 233.036 281.35 233.244 281.041C233.456 280.732 233.747 280.497 234.118 280.338C233.802 280.182 233.553 279.965 233.371 279.688C233.189 279.412 233.098 279.098 233.098 278.746C233.098 278.147 233.29 277.672 233.674 277.32C234.058 276.969 234.564 276.793 235.192 276.793C235.817 276.793 236.322 276.969 236.706 277.32C237.093 277.672 237.287 278.147 237.287 278.746ZM236.55 282.062C236.55 281.664 236.423 281.34 236.169 281.09C235.918 280.839 235.59 280.714 235.183 280.714C234.776 280.714 234.449 280.838 234.201 281.085C233.957 281.332 233.835 281.658 233.835 282.062C233.835 282.465 233.954 282.783 234.191 283.014C234.432 283.245 234.766 283.36 235.192 283.36C235.616 283.36 235.948 283.245 236.188 283.014C236.429 282.779 236.55 282.462 236.55 282.062ZM235.192 277.535C234.838 277.535 234.549 277.646 234.328 277.867C234.11 278.085 234.001 278.383 234.001 278.761C234.001 279.122 234.108 279.415 234.323 279.64C234.541 279.861 234.831 279.972 235.192 279.972C235.554 279.972 235.842 279.861 236.057 279.64C236.275 279.415 236.384 279.122 236.384 278.761C236.384 278.399 236.271 278.105 236.047 277.877C235.822 277.649 235.537 277.535 235.192 277.535Z" fill="#252525"/>
<path d="M44 169H406" stroke="#B5B5B5"/>
<path d="M44 211H406" stroke="#B5B5B5"/>
<path d="M44 253H406" stroke="#B5B5B5"/>
<g filter="url(#filter0_d_2319_9708)">
<path d="M118.032 184.021C118.032 186.929 115.771 189.286 112.981 189.286C110.192 189.286 107.931 186.929 107.931 184.021C107.931 181.113 110.192 178.756 112.981 178.756C115.771 178.756 118.032 181.113 118.032 184.021Z" fill="#20213D"/>
</g>
<g filter="url(#filter1_d_2319_9708)">
<path d="M179.57 142.644C179.57 145.552 177.309 147.909 174.519 147.909C171.73 147.909 169.469 145.552 169.469 142.644C169.469 139.736 171.73 137.379 174.519 137.379C177.309 137.379 179.57 139.736 179.57 142.644Z" fill="#22279E"/>
</g>
<g filter="url(#filter2_d_2319_9708)">
<path d="M296.284 76.265C296.284 79.1728 294.023 81.53 291.233 81.53C288.444 81.53 286.183 79.1728 286.183 76.265C286.183 73.3572 288.444 71 291.233 71C294.023 71 296.284 73.3572 296.284 76.265Z" fill="#22279E"/>
</g>
<path d="M48.2306 248.334C47.8586 248.742 47.888 249.375 48.2962 249.747C48.7044 250.119 49.3369 250.09 49.7089 249.681L48.2306 248.334ZM236.541 207.539C242.442 207.539 247.188 205.371 251.003 201.599C254.79 197.854 257.631 192.559 259.837 186.321C264.246 173.859 266.235 157.296 267.953 140.878C269.679 124.39 271.132 108.053 274.427 95.8197C276.074 89.7047 278.157 84.7207 280.888 81.2815C283.589 77.8811 286.905 76.0078 291.132 76.0078V74.0078C286.193 74.0078 282.335 76.2449 279.322 80.0376C276.34 83.7916 274.17 89.0834 272.496 95.2995C269.148 107.728 267.68 124.274 265.964 140.67C264.241 157.134 262.268 173.454 257.952 185.654C255.796 191.748 253.084 196.729 249.597 200.177C246.137 203.598 241.888 205.539 236.541 205.539V207.539ZM291.132 76.0078C299.622 76.0078 304.883 78.655 308.631 82.5483C312.439 86.505 314.751 91.8037 317.2 97.3237C319.617 102.774 322.167 108.431 326.486 112.693C330.858 117.009 336.964 119.829 346.342 119.829V117.829C337.421 117.829 331.842 115.17 327.891 111.27C323.885 107.316 321.47 102.018 319.028 96.5127C316.616 91.0775 314.172 85.421 310.072 81.1613C305.91 76.8383 300.111 74.0078 291.132 74.0078V76.0078ZM346.342 119.829C364.125 119.829 373.352 130.346 380.933 141.173C384.692 146.54 388.112 152.096 391.918 156.243C395.763 160.431 400.159 163.37 405.97 163.37V161.37C400.943 161.37 397.041 158.866 393.392 154.89C389.705 150.873 386.435 145.544 382.572 140.026C374.909 129.082 365.16 117.829 346.342 117.829V119.829ZM174.875 142.72C181.765 142.72 187.236 146.517 192.066 152.478C196.908 158.455 200.978 166.454 205.086 174.581C209.166 182.655 213.286 190.86 218.196 197.034C223.117 203.222 228.968 207.539 236.541 207.539V205.539C229.842 205.539 224.506 201.755 219.761 195.789C215.005 189.809 210.98 181.809 206.871 173.679C202.788 165.601 198.623 157.395 193.62 151.219C188.603 145.026 182.618 140.72 174.875 140.72V142.72ZM49.7089 249.681C53.0859 245.976 56.8679 240.053 61.0702 233.366C65.2953 226.643 69.9805 219.086 75.2082 211.984C80.4374 204.879 86.174 198.279 92.4757 193.461C98.7715 188.647 105.581 185.65 112.981 185.65V183.65C105.01 183.65 97.7843 186.884 91.2609 191.872C84.7434 196.855 78.8765 203.626 73.5975 210.798C68.317 217.972 63.5894 225.599 59.3768 232.302C55.1415 239.042 51.4611 244.789 48.2306 248.334L49.7089 249.681ZM112.981 185.65C123.201 185.65 130.506 182.908 136.141 178.747C141.747 174.606 145.634 169.106 149.089 163.725C152.578 158.291 155.585 153.06 159.497 149.134C163.347 145.27 168.035 142.72 174.875 142.72V140.72C167.429 140.72 162.249 143.537 158.08 147.722C153.972 151.845 150.808 157.347 147.406 162.645C143.969 167.997 140.245 173.229 134.952 177.138C129.687 181.026 122.805 183.65 112.981 183.65V185.65Z" fill="#22279E"/>
<g filter="url(#filter3_d_2319_9708)">
<path d="M54.1011 246.908C54.1011 249.815 51.8399 252.173 49.0505 252.173C46.2612 252.173 44 249.815 44 246.908C44 244 46.2612 241.643 49.0505 241.643C51.8399 241.643 54.1011 244 54.1011 246.908Z" fill="#20213D"/>
</g>
<g filter="url(#filter4_d_2319_9708)">
<path d="M241.11 206.187C241.11 209.095 238.849 211.452 236.059 211.452C233.27 211.452 231.009 209.095 231.009 206.187C231.009 203.279 233.27 200.922 236.059 200.922C238.849 200.922 241.11 203.279 241.11 206.187Z" fill="#22279E"/>
</g>
<g filter="url(#filter5_d_2319_9708)">
<path d="M351.456 119.132C351.456 122.04 349.194 124.397 346.405 124.397C343.616 124.397 341.354 122.04 341.354 119.132C341.354 116.224 343.616 113.867 346.405 113.867C349.194 113.867 351.456 116.224 351.456 119.132Z" fill="#22279E"/>
</g>
<g filter="url(#filter6_d_2319_9708)">
<path d="M411.406 163.14C411.406 166.048 409.145 168.405 406.355 168.405C403.566 168.405 401.305 166.048 401.305 163.14C401.305 160.232 403.566 157.875 406.355 157.875C409.145 157.875 411.406 160.232 411.406 163.14Z" fill="#22279E"/>
</g>
<path d="M48.2306 248.334C47.8586 248.742 47.888 249.375 48.2962 249.747C48.7044 250.119 49.3369 250.09 49.7089 249.681L48.2306 248.334ZM236.541 207.539C242.442 207.539 247.188 205.371 251.003 201.599C254.79 197.854 257.631 192.559 259.837 186.321C264.246 173.859 266.235 157.296 267.953 140.878C269.679 124.39 271.132 108.053 274.427 95.8197C276.074 89.7047 278.157 84.7207 280.888 81.2815C283.589 77.8811 286.905 76.0078 291.132 76.0078V74.0078C286.193 74.0078 282.335 76.2449 279.322 80.0376C276.34 83.7916 274.17 89.0834 272.496 95.2995C269.148 107.728 267.68 124.274 265.964 140.67C264.241 157.134 262.268 173.454 257.952 185.654C255.796 191.748 253.084 196.729 249.597 200.177C246.137 203.598 241.888 205.539 236.541 205.539V207.539ZM291.132 76.0078C299.622 76.0078 304.883 78.655 308.631 82.5483C312.439 86.505 314.751 91.8037 317.2 97.3237C319.617 102.774 322.167 108.431 326.486 112.693C330.858 117.009 336.964 119.829 346.342 119.829V117.829C337.421 117.829 331.842 115.17 327.891 111.27C323.885 107.316 321.47 102.018 319.028 96.5127C316.616 91.0775 314.172 85.421 310.072 81.1613C305.91 76.8383 300.111 74.0078 291.132 74.0078V76.0078ZM346.342 119.829C364.125 119.829 373.352 130.346 380.933 141.173C384.692 146.54 388.112 152.096 391.918 156.243C395.763 160.431 400.159 163.37 405.97 163.37V161.37C400.943 161.37 397.041 158.866 393.392 154.89C389.705 150.873 386.435 145.544 382.572 140.026C374.909 129.082 365.16 117.829 346.342 117.829V119.829ZM174.875 142.72C181.765 142.72 187.236 146.517 192.066 152.478C196.908 158.455 200.978 166.454 205.086 174.581C209.166 182.655 213.286 190.86 218.196 197.034C223.117 203.222 228.968 207.539 236.541 207.539V205.539C229.842 205.539 224.506 201.755 219.761 195.789C215.005 189.809 210.98 181.809 206.871 173.679C202.788 165.601 198.623 157.395 193.62 151.219C188.603 145.026 182.618 140.72 174.875 140.72V142.72ZM49.7089 249.681C53.0859 245.976 56.8679 240.053 61.0702 233.366C65.2953 226.643 69.9805 219.086 75.2082 211.984C80.4374 204.879 86.174 198.279 92.4757 193.461C98.7715 188.647 105.581 185.65 112.981 185.65V183.65C105.01 183.65 97.7843 186.884 91.2609 191.872C84.7434 196.855 78.8765 203.626 73.5975 210.798C68.317 217.972 63.5894 225.599 59.3768 232.302C55.1415 239.042 51.4611 244.789 48.2306 248.334L49.7089 249.681ZM112.981 185.65C123.201 185.65 130.506 182.908 136.141 178.747C141.747 174.606 145.634 169.106 149.089 163.725C152.578 158.291 155.585 153.06 159.497 149.134C163.347 145.27 168.035 142.72 174.875 142.72V140.72C167.429 140.72 162.249 143.537 158.08 147.722C153.972 151.845 150.808 157.347 147.406 162.645C143.969 167.997 140.245 173.229 134.952 177.138C129.687 181.026 122.805 183.65 112.981 183.65V185.65Z" fill="#22279E"/>
<g filter="url(#filter7_d_2319_9708)">
<path d="M54.1021 246.542C54.1021 249.45 51.8409 251.807 49.0515 251.807C46.2622 251.807 44.001 249.45 44.001 246.542C44.001 243.635 46.2622 241.277 49.0515 241.277C51.8409 241.277 54.1021 243.635 54.1021 246.542Z" fill="#22279E"/>
</g>
<g filter="url(#filter8_d_2319_9708)">
<path d="M241.11 205.824C241.11 208.731 238.849 211.089 236.059 211.089C233.27 211.089 231.009 208.731 231.009 205.824C231.009 202.916 233.27 200.559 236.059 200.559C238.849 200.559 241.11 202.916 241.11 205.824Z" fill="#22279E"/>
</g>
<g filter="url(#filter9_d_2319_9708)">
<path d="M351.456 119.132C351.456 122.04 349.194 124.397 346.405 124.397C343.616 124.397 341.354 122.04 341.354 119.132C341.354 116.224 343.616 113.867 346.405 113.867C349.194 113.867 351.456 116.224 351.456 119.132Z" fill="#22279E"/>
</g>
<g filter="url(#filter10_d_2319_9708)">
<path d="M411.407 163.14C411.407 166.048 409.146 168.405 406.356 168.405C403.567 168.405 401.306 166.048 401.306 163.14C401.306 160.232 403.567 157.875 406.356 157.875C409.146 157.875 411.407 160.232 411.407 163.14Z" fill="#22279E"/>
</g>
<g filter="url(#filter11_d_2319_9708)">
<path d="M296.284 76.2728C296.284 79.1806 294.023 81.5378 291.233 81.5378C288.444 81.5378 286.183 79.1806 286.183 76.2728C286.183 73.365 288.444 71.0078 291.233 71.0078C294.023 71.0078 296.284 73.365 296.284 76.2728Z" fill="#22279E"/>
</g>
<g filter="url(#filter12_d_2319_9708)">
<path d="M179.571 142.281C179.571 145.188 177.31 147.546 174.52 147.546C171.731 147.546 169.47 145.188 169.47 142.281C169.47 139.373 171.731 137.016 174.52 137.016C177.31 137.016 179.571 139.373 179.571 142.281Z" fill="#22279E"/>
</g>
<g filter="url(#filter13_d_2319_9708)">
<path d="M118.071 183.91C118.071 186.817 115.81 189.175 113.02 189.175C110.231 189.175 107.97 186.817 107.97 183.91C107.97 181.002 110.231 178.645 113.02 178.645C115.81 178.645 118.071 181.002 118.071 183.91Z" fill="#22279E"/>
</g>
<defs>
<filter id="filter0_d_2319_9708" x="105.931" y="177.756" width="14.1016" height="14.53" filterUnits="userSpaceOnUse" color-interpolation-filters="sRGB">
<feFlood flood-opacity="0" result="BackgroundImageFix"/>
<feColorMatrix in="SourceAlpha" type="matrix" values="0 0 0 0 0 0 0 0 0 0 0 0 0 0 0 0 0 0 127 0" result="hardAlpha"/>
<feOffset dy="1"/>
<feGaussianBlur stdDeviation="1"/>
<feColorMatrix type="matrix" values="0 0 0 0 0.215686 0 0 0 0 0.317647 0 0 0 0 1 0 0 0 0.2 0"/>
<feBlend mode="normal" in2="BackgroundImageFix" result="effect1_dropShadow_2319_9708"/>
<feBlend mode="normal" in="SourceGraphic" in2="effect1_dropShadow_2319_9708" result="shape"/>
</filter>
<filter id="filter1_d_2319_9708" x="167.469" y="136.379" width="14.1016" height="14.53" filterUnits="userSpaceOnUse" color-interpolation-filters="sRGB">
<feFlood flood-opacity="0" result="BackgroundImageFix"/>
<feColorMatrix in="SourceAlpha" type="matrix" values="0 0 0 0 0 0 0 0 0 0 0 0 0 0 0 0 0 0 127 0" result="hardAlpha"/>
<feOffset dy="1"/>
<feGaussianBlur stdDeviation="1"/>
<feColorMatrix type="matrix" values="0 0 0 0 0.215686 0 0 0 0 0.317647 0 0 0 0 1 0 0 0 0.2 0"/>
<feBlend mode="normal" in2="BackgroundImageFix" result="effect1_dropShadow_2319_9708"/>
<feBlend mode="normal" in="SourceGraphic" in2="effect1_dropShadow_2319_9708" result="shape"/>
</filter>
<filter id="filter2_d_2319_9708" x="284.183" y="70" width="14.1016" height="14.53" filterUnits="userSpaceOnUse" color-interpolation-filters="sRGB">
<feFlood flood-opacity="0" result="BackgroundImageFix"/>
<feColorMatrix in="SourceAlpha" type="matrix" values="0 0 0 0 0 0 0 0 0 0 0 0 0 0 0 0 0 0 127 0" result="hardAlpha"/>
<feOffset dy="1"/>
<feGaussianBlur stdDeviation="1"/>
<feColorMatrix type="matrix" values="0 0 0 0 0.215686 0 0 0 0 0.317647 0 0 0 0 1 0 0 0 0.2 0"/>
<feBlend mode="normal" in2="BackgroundImageFix" result="effect1_dropShadow_2319_9708"/>
<feBlend mode="normal" in="SourceGraphic" in2="effect1_dropShadow_2319_9708" result="shape"/>
</filter>
<filter id="filter3_d_2319_9708" x="42" y="240.643" width="14.1016" height="14.53" filterUnits="userSpaceOnUse" color-interpolation-filters="sRGB">
<feFlood flood-opacity="0" result="BackgroundImageFix"/>
<feColorMatrix in="SourceAlpha" type="matrix" values="0 0 0 0 0 0 0 0 0 0 0 0 0 0 0 0 0 0 127 0" result="hardAlpha"/>
<feOffset dy="1"/>
<feGaussianBlur stdDeviation="1"/>
<feColorMatrix type="matrix" values="0 0 0 0 0.215686 0 0 0 0 0.317647 0 0 0 0 1 0 0 0 0.2 0"/>
<feBlend mode="normal" in2="BackgroundImageFix" result="effect1_dropShadow_2319_9708"/>
<feBlend mode="normal" in="SourceGraphic" in2="effect1_dropShadow_2319_9708" result="shape"/>
</filter>
<filter id="filter4_d_2319_9708" x="229.009" y="199.922" width="14.1016" height="14.53" filterUnits="userSpaceOnUse" color-interpolation-filters="sRGB">
<feFlood flood-opacity="0" result="BackgroundImageFix"/>
<feColorMatrix in="SourceAlpha" type="matrix" values="0 0 0 0 0 0 0 0 0 0 0 0 0 0 0 0 0 0 127 0" result="hardAlpha"/>
<feOffset dy="1"/>
<feGaussianBlur stdDeviation="1"/>
<feColorMatrix type="matrix" values="0 0 0 0 0.215686 0 0 0 0 0.317647 0 0 0 0 1 0 0 0 0.2 0"/>
<feBlend mode="normal" in2="BackgroundImageFix" result="effect1_dropShadow_2319_9708"/>
<feBlend mode="normal" in="SourceGraphic" in2="effect1_dropShadow_2319_9708" result="shape"/>
</filter>
<filter id="filter5_d_2319_9708" x="339.354" y="112.867" width="14.1016" height="14.53" filterUnits="userSpaceOnUse" color-interpolation-filters="sRGB">
<feFlood flood-opacity="0" result="BackgroundImageFix"/>
<feColorMatrix in="SourceAlpha" type="matrix" values="0 0 0 0 0 0 0 0 0 0 0 0 0 0 0 0 0 0 127 0" result="hardAlpha"/>
<feOffset dy="1"/>
<feGaussianBlur stdDeviation="1"/>
<feColorMatrix type="matrix" values="0 0 0 0 0.215686 0 0 0 0 0.317647 0 0 0 0 1 0 0 0 0.2 0"/>
<feBlend mode="normal" in2="BackgroundImageFix" result="effect1_dropShadow_2319_9708"/>
<feBlend mode="normal" in="SourceGraphic" in2="effect1_dropShadow_2319_9708" result="shape"/>
</filter>
<filter id="filter6_d_2319_9708" x="399.305" y="156.875" width="14.1016" height="14.53" filterUnits="userSpaceOnUse" color-interpolation-filters="sRGB">
<feFlood flood-opacity="0" result="BackgroundImageFix"/>
<feColorMatrix in="SourceAlpha" type="matrix" values="0 0 0 0 0 0 0 0 0 0 0 0 0 0 0 0 0 0 127 0" result="hardAlpha"/>
<feOffset dy="1"/>
<feGaussianBlur stdDeviation="1"/>
<feColorMatrix type="matrix" values="0 0 0 0 0.215686 0 0 0 0 0.317647 0 0 0 0 1 0 0 0 0.2 0"/>
<feBlend mode="normal" in2="BackgroundImageFix" result="effect1_dropShadow_2319_9708"/>
<feBlend mode="normal" in="SourceGraphic" in2="effect1_dropShadow_2319_9708" result="shape"/>
</filter>
<filter id="filter7_d_2319_9708" x="42.001" y="240.277" width="14.1016" height="14.53" filterUnits="userSpaceOnUse" color-interpolation-filters="sRGB">
<feFlood flood-opacity="0" result="BackgroundImageFix"/>
<feColorMatrix in="SourceAlpha" type="matrix" values="0 0 0 0 0 0 0 0 0 0 0 0 0 0 0 0 0 0 127 0" result="hardAlpha"/>
<feOffset dy="1"/>
<feGaussianBlur stdDeviation="1"/>
<feColorMatrix type="matrix" values="0 0 0 0 0.215686 0 0 0 0 0.317647 0 0 0 0 1 0 0 0 0.2 0"/>
<feBlend mode="normal" in2="BackgroundImageFix" result="effect1_dropShadow_2319_9708"/>
<feBlend mode="normal" in="SourceGraphic" in2="effect1_dropShadow_2319_9708" result="shape"/>
</filter>
<filter id="filter8_d_2319_9708" x="229.009" y="199.559" width="14.1016" height="14.53" filterUnits="userSpaceOnUse" color-interpolation-filters="sRGB">
<feFlood flood-opacity="0" result="BackgroundImageFix"/>
<feColorMatrix in="SourceAlpha" type="matrix" values="0 0 0 0 0 0 0 0 0 0 0 0 0 0 0 0 0 0 127 0" result="hardAlpha"/>
<feOffset dy="1"/>
<feGaussianBlur stdDeviation="1"/>
<feColorMatrix type="matrix" values="0 0 0 0 0.215686 0 0 0 0 0.317647 0 0 0 0 1 0 0 0 0.2 0"/>
<feBlend mode="normal" in2="BackgroundImageFix" result="effect1_dropShadow_2319_9708"/>
<feBlend mode="normal" in="SourceGraphic" in2="effect1_dropShadow_2319_9708" result="shape"/>
</filter>
<filter id="filter9_d_2319_9708" x="339.354" y="112.867" width="14.1016" height="14.53" filterUnits="userSpaceOnUse" color-interpolation-filters="sRGB">
<feFlood flood-opacity="0" result="BackgroundImageFix"/>
<feColorMatrix in="SourceAlpha" type="matrix" values="0 0 0 0 0 0 0 0 0 0 0 0 0 0 0 0 0 0 127 0" result="hardAlpha"/>
<feOffset dy="1"/>
<feGaussianBlur stdDeviation="1"/>
<feColorMatrix type="matrix" values="0 0 0 0 0.215686 0 0 0 0 0.317647 0 0 0 0 1 0 0 0 0.2 0"/>
<feBlend mode="normal" in2="BackgroundImageFix" result="effect1_dropShadow_2319_9708"/>
<feBlend mode="normal" in="SourceGraphic" in2="effect1_dropShadow_2319_9708" result="shape"/>
</filter>
<filter id="filter10_d_2319_9708" x="399.306" y="156.875" width="14.1016" height="14.53" filterUnits="userSpaceOnUse" color-interpolation-filters="sRGB">
<feFlood flood-opacity="0" result="BackgroundImageFix"/>
<feColorMatrix in="SourceAlpha" type="matrix" values="0 0 0 0 0 0 0 0 0 0 0 0 0 0 0 0 0 0 127 0" result="hardAlpha"/>
<feOffset dy="1"/>
<feGaussianBlur stdDeviation="1"/>
<feColorMatrix type="matrix" values="0 0 0 0 0.215686 0 0 0 0 0.317647 0 0 0 0 1 0 0 0 0.2 0"/>
<feBlend mode="normal" in2="BackgroundImageFix" result="effect1_dropShadow_2319_9708"/>
<feBlend mode="normal" in="SourceGraphic" in2="effect1_dropShadow_2319_9708" result="shape"/>
</filter>
<filter id="filter11_d_2319_9708" x="284.183" y="70.0078" width="14.1016" height="14.53" filterUnits="userSpaceOnUse" color-interpolation-filters="sRGB">
<feFlood flood-opacity="0" result="BackgroundImageFix"/>
<feColorMatrix in="SourceAlpha" type="matrix" values="0 0 0 0 0 0 0 0 0 0 0 0 0 0 0 0 0 0 127 0" result="hardAlpha"/>
<feOffset dy="1"/>
<feGaussianBlur stdDeviation="1"/>
<feColorMatrix type="matrix" values="0 0 0 0 0.215686 0 0 0 0 0.317647 0 0 0 0 1 0 0 0 0.2 0"/>
<feBlend mode="normal" in2="BackgroundImageFix" result="effect1_dropShadow_2319_9708"/>
<feBlend mode="normal" in="SourceGraphic" in2="effect1_dropShadow_2319_9708" result="shape"/>
</filter>
<filter id="filter12_d_2319_9708" x="167.47" y="136.016" width="14.1016" height="14.53" filterUnits="userSpaceOnUse" color-interpolation-filters="sRGB">
<feFlood flood-opacity="0" result="BackgroundImageFix"/>
<feColorMatrix in="SourceAlpha" type="matrix" values="0 0 0 0 0 0 0 0 0 0 0 0 0 0 0 0 0 0 127 0" result="hardAlpha"/>
<feOffset dy="1"/>
<feGaussianBlur stdDeviation="1"/>
<feColorMatrix type="matrix" values="0 0 0 0 0.215686 0 0 0 0 0.317647 0 0 0 0 1 0 0 0 0.2 0"/>
<feBlend mode="normal" in2="BackgroundImageFix" result="effect1_dropShadow_2319_9708"/>
<feBlend mode="normal" in="SourceGraphic" in2="effect1_dropShadow_2319_9708" result="shape"/>
</filter>
<filter id="filter13_d_2319_9708" x="105.97" y="177.645" width="14.1016" height="14.53" filterUnits="userSpaceOnUse" color-interpolation-filters="sRGB">
<feFlood flood-opacity="0" result="BackgroundImageFix"/>
<feColorMatrix in="SourceAlpha" type="matrix" values="0 0 0 0 0 0 0 0 0 0 0 0 0 0 0 0 0 0 127 0" result="hardAlpha"/>
<feOffset dy="1"/>
<feGaussianBlur stdDeviation="1"/>
<feColorMatrix type="matrix" values="0 0 0 0 0.215686 0 0 0 0 0.317647 0 0 0 0 1 0 0 0 0.2 0"/>
<feBlend mode="normal" in2="BackgroundImageFix" result="effect1_dropShadow_2319_9708"/>
<feBlend mode="normal" in="SourceGraphic" in2="effect1_dropShadow_2319_9708" result="shape"/>
</filter>
</defs>
</svg>
