<svg width="624" height="61" viewBox="0 0 624 61" fill="none" xmlns="http://www.w3.org/2000/svg">
<rect y="27.2871" width="624" height="6.12308" rx="3.06154" fill="#EBEBEB"/>
<rect y="27.2871" width="324" height="6.12308" rx="3.06154" fill="#6FCF97"/>
<path d="M6.19922 54.0851C6.19922 55.3116 5.96875 56.2374 5.50781 56.8624C5.05078 57.4835 4.35352 57.7941 3.41602 57.7941C2.49414 57.7941 1.79883 57.4913 1.33008 56.8859C0.865234 56.2765 0.626953 55.3761 0.615234 54.1847V52.7081C0.615234 51.4816 0.84375 50.5616 1.30078 49.9484C1.76172 49.3351 2.46289 49.0284 3.4043 49.0284C4.33789 49.0284 5.0332 49.3273 5.49023 49.9249C5.95117 50.5226 6.1875 51.4171 6.19922 52.6085V54.0851ZM4.77539 52.4913C4.77539 51.6906 4.66602 51.1046 4.44727 50.7335C4.22852 50.3585 3.88086 50.171 3.4043 50.171C2.93945 50.171 2.59766 50.3488 2.37891 50.7042C2.16016 51.0558 2.04492 51.6066 2.0332 52.3566V54.2902C2.0332 55.087 2.14453 55.6808 2.36719 56.0714C2.58984 56.462 2.93945 56.6573 3.41602 56.6573C3.87305 56.6573 4.21094 56.4777 4.42969 56.1183C4.64844 55.755 4.76367 55.1886 4.77539 54.4191V52.4913Z" fill="black"/>
<path d="M611.463 57.6769H605.726V56.6984L608.568 53.5988C608.978 53.1417 609.269 52.7609 609.441 52.4562C609.617 52.1476 609.705 51.839 609.705 51.5304C609.705 51.1241 609.59 50.796 609.359 50.546C609.133 50.296 608.826 50.171 608.439 50.171C607.978 50.171 607.621 50.3116 607.367 50.5929C607.113 50.8741 606.986 51.2589 606.986 51.7472H605.562C605.562 51.2277 605.68 50.7609 605.914 50.3468C606.152 49.9288 606.49 49.6046 606.928 49.3741C607.369 49.1437 607.877 49.0284 608.451 49.0284C609.279 49.0284 609.932 49.2374 610.408 49.6554C610.889 50.0695 611.129 50.6437 611.129 51.3781C611.129 51.8038 611.008 52.2511 610.766 52.7198C610.527 53.1847 610.135 53.714 609.588 54.3077L607.502 56.5402H611.463V57.6769ZM614.485 56.1769C614.751 56.1769 614.956 56.2531 615.101 56.4054C615.245 56.5538 615.317 56.7413 615.317 56.9679C615.317 57.1906 615.245 57.3761 615.101 57.5245C614.956 57.6691 614.751 57.7413 614.485 57.7413C614.231 57.7413 614.03 57.6691 613.882 57.5245C613.733 57.38 613.659 57.1945 613.659 56.9679C613.659 56.7413 613.731 56.5538 613.876 56.4054C614.02 56.2531 614.224 56.1769 614.485 56.1769ZM623.379 54.0851C623.379 55.3116 623.148 56.2374 622.688 56.8624C622.23 57.4835 621.533 57.7941 620.596 57.7941C619.674 57.7941 618.979 57.4913 618.51 56.8859C618.045 56.2765 617.807 55.3761 617.795 54.1847V52.7081C617.795 51.4816 618.023 50.5616 618.48 49.9484C618.941 49.3351 619.643 49.0284 620.584 49.0284C621.518 49.0284 622.213 49.3273 622.67 49.9249C623.131 50.5226 623.367 51.4171 623.379 52.6085V54.0851ZM621.955 52.4913C621.955 51.6906 621.846 51.1046 621.627 50.7335C621.408 50.3585 621.061 50.171 620.584 50.171C620.119 50.171 619.777 50.3488 619.559 50.7042C619.34 51.0558 619.225 51.6066 619.213 52.3566V54.2902C619.213 55.087 619.324 55.6808 619.547 56.0714C619.77 56.462 620.119 56.6573 620.596 56.6573C621.053 56.6573 621.391 56.4777 621.609 56.1183C621.828 55.755 621.943 55.1886 621.955 54.4191V52.4913Z" fill="black"/>
<path d="M323.579 16H321.672V3.35693L317.847 4.76172V3.03906L323.282 0.998535H323.579V16Z" fill="black"/>
<circle cx="322" cy="31" r="6" fill="#0A1596"/>
</svg>
